<?xml version="1.0" encoding="UTF-8" standalone="no"?><svg width="298" height="115" viewBox="0 0 298 115" fill="none" xmlns="http://www.w3.org/2000/svg">
<mask id="path-1-outside-1_198_275" maskUnits="userSpaceOnUse" x="4" y="23.0166" width="196" height="67" fill="black">
<rect fill="white" x="4" y="23.0166" width="196" height="67"/>
<path d="M26.4289 88.0453C22.3141 88.0453 18.6851 87.1309 15.5418 85.3021C12.3986 83.4162 9.94115 80.8158 8.16951 77.5011C6.39786 74.1864 5.51203 70.3288 5.51203 65.9283C5.51203 61.4706 6.36928 57.5558 8.08378 54.184C9.85543 50.8121 12.3129 48.1832 15.4561 46.2973C18.6565 44.4113 22.3427 43.4684 26.5146 43.4684C30.6294 43.4684 34.1727 44.4113 37.1445 46.2973C40.1163 48.1261 42.4023 50.5835 44.0025 53.6696C45.6599 56.7557 46.4885 60.1561 46.4885 63.8709C46.4885 64.4424 46.4885 65.071 46.4885 65.7568C46.4885 66.3855 46.46 67.0998 46.4028 67.8999H14.4274C14.7132 71.8433 15.999 74.8437 18.285 76.9011C20.571 78.9013 23.2571 79.9014 26.3432 79.9014C29.0292 79.9014 31.1438 79.3585 32.6868 78.2727C34.287 77.1297 35.4586 75.5866 36.2015 73.6435H45.3741C44.3454 77.7012 42.2023 81.1302 38.9447 83.9305C35.6872 86.6737 31.5153 88.0453 26.4289 88.0453ZM26.4289 51.355C23.6286 51.355 21.1425 52.2123 18.9708 53.9268C16.7991 55.5841 15.399 57.9273 14.7703 60.9562H37.4017C37.1731 58.0987 36.0587 55.7842 34.0584 54.0125C32.0582 52.2409 29.515 51.355 26.4289 51.355ZM71.8296 87.0166L53.3988 44.497H63.6858L77.316 77.4154L91.032 44.497H101.233L82.7167 87.0166H71.8296ZM128.717 88.0453C124.66 88.0453 121.031 87.1309 117.83 85.3021C114.63 83.4733 112.115 80.9016 110.287 77.5869C108.458 74.215 107.543 70.2717 107.543 65.7568C107.543 61.242 108.458 57.3272 110.287 54.0125C112.115 50.6407 114.63 48.0403 117.83 46.2115C121.031 44.3828 124.688 43.4684 128.803 43.4684C132.918 43.4684 136.547 44.3828 139.69 46.2115C142.891 48.0403 145.377 50.6407 147.148 54.0125C148.977 57.3272 149.892 61.242 149.892 65.7568C149.892 70.2717 148.977 74.215 147.148 77.5869C145.32 80.9016 142.805 83.4733 139.605 85.3021C136.461 87.1309 132.832 88.0453 128.717 88.0453ZM128.717 79.3871C130.889 79.3871 132.889 78.9013 134.718 77.9298C136.547 76.9582 138.004 75.4723 139.09 73.4721C140.233 71.4147 140.805 68.8429 140.805 65.7568C140.805 62.6136 140.233 60.0418 139.09 58.0416C138.004 56.0413 136.547 54.5554 134.718 53.5839C132.947 52.6123 130.975 52.1266 128.803 52.1266C126.631 52.1266 124.631 52.6123 122.802 53.5839C120.974 54.5554 119.488 56.0413 118.345 58.0416C117.259 60.0418 116.716 62.6136 116.716 65.7568C116.716 70.4431 117.888 73.9007 120.231 76.1295C122.631 78.3012 125.46 79.3871 128.717 79.3871ZM160.231 87.0166V79.1299H174.461V36.0103C174.461 34.1243 173.547 33.1814 171.718 33.1814H161.431V25.2947H173.347C176.661 25.2947 179.176 26.1805 180.89 27.9521C182.662 29.6666 183.548 32.1812 183.548 35.4959V79.1299H197.864V87.0166H160.231Z"/>
</mask>
<path d="M26.4289 88.0453C22.3141 88.0453 18.6851 87.1309 15.5418 85.3021C12.3986 83.4162 9.94115 80.8158 8.16951 77.5011C6.39786 74.1864 5.51203 70.3288 5.51203 65.9283C5.51203 61.4706 6.36928 57.5558 8.08378 54.184C9.85543 50.8121 12.3129 48.1832 15.4561 46.2973C18.6565 44.4113 22.3427 43.4684 26.5146 43.4684C30.6294 43.4684 34.1727 44.4113 37.1445 46.2973C40.1163 48.1261 42.4023 50.5835 44.0025 53.6696C45.6599 56.7557 46.4885 60.1561 46.4885 63.8709C46.4885 64.4424 46.4885 65.071 46.4885 65.7568C46.4885 66.3855 46.46 67.0998 46.4028 67.8999H14.4274C14.7132 71.8433 15.999 74.8437 18.285 76.9011C20.571 78.9013 23.2571 79.9014 26.3432 79.9014C29.0292 79.9014 31.1438 79.3585 32.6868 78.2727C34.287 77.1297 35.4586 75.5866 36.2015 73.6435H45.3741C44.3454 77.7012 42.2023 81.1302 38.9447 83.9305C35.6872 86.6737 31.5153 88.0453 26.4289 88.0453ZM26.4289 51.355C23.6286 51.355 21.1425 52.2123 18.9708 53.9268C16.7991 55.5841 15.399 57.9273 14.7703 60.9562H37.4017C37.1731 58.0987 36.0587 55.7842 34.0584 54.0125C32.0582 52.2409 29.515 51.355 26.4289 51.355ZM71.8296 87.0166L53.3988 44.497H63.6858L77.316 77.4154L91.032 44.497H101.233L82.7167 87.0166H71.8296ZM128.717 88.0453C124.66 88.0453 121.031 87.1309 117.83 85.3021C114.63 83.4733 112.115 80.9016 110.287 77.5869C108.458 74.215 107.543 70.2717 107.543 65.7568C107.543 61.242 108.458 57.3272 110.287 54.0125C112.115 50.6407 114.63 48.0403 117.83 46.2115C121.031 44.3828 124.688 43.4684 128.803 43.4684C132.918 43.4684 136.547 44.3828 139.69 46.2115C142.891 48.0403 145.377 50.6407 147.148 54.0125C148.977 57.3272 149.892 61.242 149.892 65.7568C149.892 70.2717 148.977 74.215 147.148 77.5869C145.32 80.9016 142.805 83.4733 139.605 85.3021C136.461 87.1309 132.832 88.0453 128.717 88.0453ZM128.717 79.3871C130.889 79.3871 132.889 78.9013 134.718 77.9298C136.547 76.9582 138.004 75.4723 139.09 73.4721C140.233 71.4147 140.805 68.8429 140.805 65.7568C140.805 62.6136 140.233 60.0418 139.09 58.0416C138.004 56.0413 136.547 54.5554 134.718 53.5839C132.947 52.6123 130.975 52.1266 128.803 52.1266C126.631 52.1266 124.631 52.6123 122.802 53.5839C120.974 54.5554 119.488 56.0413 118.345 58.0416C117.259 60.0418 116.716 62.6136 116.716 65.7568C116.716 70.4431 117.888 73.9007 120.231 76.1295C122.631 78.3012 125.46 79.3871 128.717 79.3871ZM160.231 87.0166V79.1299H174.461V36.0103C174.461 34.1243 173.547 33.1814 171.718 33.1814H161.431V25.2947H173.347C176.661 25.2947 179.176 26.1805 180.89 27.9521C182.662 29.6666 183.548 32.1812 183.548 35.4959V79.1299H197.864V87.0166H160.231Z" fill="#EFF5FF"/>
<path d="M15.5418 85.3021L14.7701 86.5883L14.7788 86.5935L14.7875 86.5986L15.5418 85.3021ZM8.16951 77.5011L6.84661 78.2082L6.84661 78.2082L8.16951 77.5011ZM8.08378 54.184L6.75592 53.4863L6.75125 53.4952L6.7467 53.5041L8.08378 54.184ZM15.4561 46.2973L14.6946 45.0049L14.6844 45.011L15.4561 46.2973ZM37.1445 46.2973L36.3408 47.5638L36.3495 47.5693L36.3584 47.5748L37.1445 46.2973ZM44.0025 53.6696L42.6709 54.3601L42.6759 54.3697L42.681 54.3793L44.0025 53.6696ZM46.4028 67.8999V69.3999H47.7995L47.899 68.0068L46.4028 67.8999ZM14.4274 67.8999V66.3999H12.8148L12.9313 68.0084L14.4274 67.8999ZM18.285 76.9011L17.2816 78.016L17.2894 78.023L17.2973 78.0299L18.285 76.9011ZM32.6868 78.2727L33.5501 79.4994L33.5587 79.4933L32.6868 78.2727ZM36.2015 73.6435V72.1435H35.1692L34.8005 73.1078L36.2015 73.6435ZM45.3741 73.6435L46.8281 74.0121L47.3018 72.1435H45.3741V73.6435ZM38.9447 83.9305L39.911 85.0779L39.9168 85.073L39.9226 85.068L38.9447 83.9305ZM18.9708 53.9268L19.8809 55.1192L19.8906 55.1117L19.9003 55.1041L18.9708 53.9268ZM14.7703 60.9562L13.3016 60.6514L12.927 62.4562H14.7703V60.9562ZM37.4017 60.9562V62.4562H39.0265L38.8969 60.8366L37.4017 60.9562ZM34.0584 54.0125L35.053 52.8896L35.053 52.8896L34.0584 54.0125ZM26.4289 86.5453C22.5436 86.5453 19.1815 85.6843 16.2962 84.0056L14.7875 86.5986C18.1887 88.5775 22.0846 89.5453 26.4289 89.5453V86.5453ZM16.3136 84.0159C13.4092 82.2732 11.1395 79.8758 9.4924 76.7941L6.84661 78.2082C8.74279 81.7559 11.388 84.5591 14.7701 86.5883L16.3136 84.0159ZM9.4924 76.7941C7.85543 73.7313 7.01203 70.1244 7.01203 65.9283H4.01203C4.01203 70.5333 4.94029 74.6415 6.84661 78.2082L9.4924 76.7941ZM7.01203 65.9283C7.01203 61.6649 7.831 57.9905 9.42086 54.8638L6.7467 53.5041C4.90756 57.1211 4.01203 61.2763 4.01203 65.9283H7.01203ZM9.41165 54.8817C11.0606 51.7433 13.3299 49.3223 16.2279 47.5835L14.6844 45.011C11.2958 47.0442 8.65024 49.8809 6.75592 53.4863L9.41165 54.8817ZM16.2177 47.5896C19.1599 45.8558 22.5768 44.9684 26.5146 44.9684V41.9684C22.1086 41.9684 18.1531 42.9669 14.6946 45.005L16.2177 47.5896ZM26.5146 44.9684C30.3938 44.9684 33.6476 45.8546 36.3408 47.5638L37.9483 45.0308C34.6979 42.968 30.8651 41.9684 26.5146 41.9684V44.9684ZM36.3584 47.5748C39.0994 49.2615 41.1964 51.5165 42.6709 54.3601L45.3341 52.9791C43.6082 49.6506 41.1332 46.9906 37.9307 45.0198L36.3584 47.5748ZM42.681 54.3793C44.2141 57.234 44.9885 60.3884 44.9885 63.8709H47.9885C47.9885 59.9239 47.1056 56.2774 45.324 52.9599L42.681 54.3793ZM44.9885 63.8709C44.9885 63.872 44.9885 63.8731 44.9885 63.8742C44.9885 63.8753 44.9885 63.8765 44.9885 63.8776C44.9885 63.8787 44.9885 63.8798 44.9885 63.8809C44.9885 63.882 44.9885 63.8832 44.9885 63.8843C44.9885 63.8854 44.9885 63.8865 44.9885 63.8876C44.9885 63.8888 44.9885 63.8899 44.9885 63.891C44.9885 63.8921 44.9885 63.8932 44.9885 63.8944C44.9885 63.8955 44.9885 63.8966 44.9885 63.8977C44.9885 63.8988 44.9885 63.8999 44.9885 63.9011C44.9885 63.9022 44.9885 63.9033 44.9885 63.9044C44.9885 63.9056 44.9885 63.9067 44.9885 63.9078C44.9885 63.9089 44.9885 63.91 44.9885 63.9112C44.9885 63.9123 44.9885 63.9134 44.9885 63.9145C44.9885 63.9156 44.9885 63.9168 44.9885 63.9179C44.9885 63.919 44.9885 63.9201 44.9885 63.9213C44.9885 63.9224 44.9885 63.9235 44.9885 63.9246C44.9885 63.9257 44.9885 63.9269 44.9885 63.928C44.9885 63.9291 44.9885 63.9302 44.9885 63.9314C44.9885 63.9325 44.9885 63.9336 44.9885 63.9347C44.9885 63.9359 44.9885 63.937 44.9885 63.9381C44.9885 63.9392 44.9885 63.9404 44.9885 63.9415C44.9885 63.9426 44.9885 63.9437 44.9885 63.9449C44.9885 63.946 44.9885 63.9471 44.9885 63.9482C44.9885 63.9494 44.9885 63.9505 44.9885 63.9516C44.9885 63.9527 44.9885 63.9539 44.9885 63.955C44.9885 63.9561 44.9885 63.9573 44.9885 63.9584C44.9885 63.9595 44.9885 63.9606 44.9885 63.9618C44.9885 63.9629 44.9885 63.964 44.9885 63.9652C44.9885 63.9663 44.9885 63.9674 44.9885 63.9685C44.9885 63.9697 44.9885 63.9708 44.9885 63.9719C44.9885 63.9731 44.9885 63.9742 44.9885 63.9753C44.9885 63.9764 44.9885 63.9776 44.9885 63.9787C44.9885 63.9798 44.9885 63.981 44.9885 63.9821C44.9885 63.9832 44.9885 63.9844 44.9885 63.9855C44.9885 63.9866 44.9885 63.9877 44.9885 63.9889C44.9885 63.99 44.9885 63.9911 44.9885 63.9923C44.9885 63.9934 44.9885 63.9945 44.9885 63.9957C44.9885 63.9968 44.9885 63.9979 44.9885 63.9991C44.9885 64.0002 44.9885 64.0013 44.9885 64.0025C44.9885 64.0036 44.9885 64.0047 44.9885 64.0059C44.9885 64.007 44.9885 64.0081 44.9885 64.0093C44.9885 64.0104 44.9885 64.0115 44.9885 64.0127C44.9885 64.0138 44.9885 64.0149 44.9885 64.0161C44.9885 64.0172 44.9885 64.0183 44.9885 64.0195C44.9885 64.0206 44.9885 64.0218 44.9885 64.0229C44.9885 64.024 44.9885 64.0252 44.9885 64.0263C44.9885 64.0274 44.9885 64.0286 44.9885 64.0297C44.9885 64.0308 44.9885 64.032 44.9885 64.0331C44.9885 64.0343 44.9885 64.0354 44.9885 64.0365C44.9885 64.0377 44.9885 64.0388 44.9885 64.0399C44.9885 64.0411 44.9885 64.0422 44.9885 64.0434C44.9885 64.0445 44.9885 64.0456 44.9885 64.0468C44.9885 64.0479 44.9885 64.0491 44.9885 64.0502C44.9885 64.0513 44.9885 64.0525 44.9885 64.0536C44.9885 64.0548 44.9885 64.0559 44.9885 64.057C44.9885 64.0582 44.9885 64.0593 44.9885 64.0605C44.9885 64.0616 44.9885 64.0627 44.9885 64.0639C44.9885 64.065 44.9885 64.0662 44.9885 64.0673C44.9885 64.0684 44.9885 64.0696 44.9885 64.0707C44.9885 64.0719 44.9885 64.073 44.9885 64.0741C44.9885 64.0753 44.9885 64.0764 44.9885 64.0776C44.9885 64.0787 44.9885 64.0799 44.9885 64.081C44.9885 64.0821 44.9885 64.0833 44.9885 64.0844C44.9885 64.0856 44.9885 64.0867 44.9885 64.0879C44.9885 64.089 44.9885 64.0902 44.9885 64.0913C44.9885 64.0924 44.9885 64.0936 44.9885 64.0947C44.9885 64.0959 44.9885 64.097 44.9885 64.0982C44.9885 64.0993 44.9885 64.1005 44.9885 64.1016C44.9885 64.1028 44.9885 64.1039 44.9885 64.105C44.9885 64.1062 44.9885 64.1073 44.9885 64.1085C44.9885 64.1096 44.9885 64.1108 44.9885 64.1119C44.9885 64.1131 44.9885 64.1142 44.9885 64.1154C44.9885 64.1165 44.9885 64.1177 44.9885 64.1188C44.9885 64.12 44.9885 64.1211 44.9885 64.1223C44.9885 64.1234 44.9885 64.1246 44.9885 64.1257C44.9885 64.1269 44.9885 64.128 44.9885 64.1292C44.9885 64.1303 44.9885 64.1315 44.9885 64.1326C44.9885 64.1337 44.9885 64.1349 44.9885 64.136C44.9885 64.1372 44.9885 64.1384 44.9885 64.1395C44.9885 64.1407 44.9885 64.1418 44.9885 64.143C44.9885 64.1441 44.9885 64.1453 44.9885 64.1464C44.9885 64.1476 44.9885 64.1487 44.9885 64.1499C44.9885 64.151 44.9885 64.1522 44.9885 64.1533C44.9885 64.1545 44.9885 64.1556 44.9885 64.1568C44.9885 64.1579 44.9885 64.1591 44.9885 64.1602C44.9885 64.1614 44.9885 64.1625 44.9885 64.1637C44.9885 64.1649 44.9885 64.166 44.9885 64.1672C44.9885 64.1683 44.9885 64.1695 44.9885 64.1706C44.9885 64.1718 44.9885 64.1729 44.9885 64.1741C44.9885 64.1752 44.9885 64.1764 44.9885 64.1776C44.9885 64.1787 44.9885 64.1799 44.9885 64.181C44.9885 64.1822 44.9885 64.1833 44.9885 64.1845C44.9885 64.1856 44.9885 64.1868 44.9885 64.188C44.9885 64.1891 44.9885 64.1903 44.9885 64.1914C44.9885 64.1926 44.9885 64.1937 44.9885 64.1949C44.9885 64.1961 44.9885 64.1972 44.9885 64.1984C44.9885 64.1995 44.9885 64.2007 44.9885 64.2018C44.9885 64.203 44.9885 64.2042 44.9885 64.2053C44.9885 64.2065 44.9885 64.2076 44.9885 64.2088C44.9885 64.21 44.9885 64.2111 44.9885 64.2123C44.9885 64.2134 44.9885 64.2146 44.9885 64.2158C44.9885 64.2169 44.9885 64.2181 44.9885 64.2192C44.9885 64.2204 44.9885 64.2216 44.9885 64.2227C44.9885 64.2239 44.9885 64.225 44.9885 64.2262C44.9885 64.2274 44.9885 64.2285 44.9885 64.2297C44.9885 64.2309 44.9885 64.232 44.9885 64.2332C44.9885 64.2343 44.9885 64.2355 44.9885 64.2367C44.9885 64.2378 44.9885 64.239 44.9885 64.2402C44.9885 64.2413 44.9885 64.2425 44.9885 64.2436C44.9885 64.2448 44.9885 64.246 44.9885 64.2471C44.9885 64.2483 44.9885 64.2495 44.9885 64.2506C44.9885 64.2518 44.9885 64.253 44.9885 64.2541C44.9885 64.2553 44.9885 64.2565 44.9885 64.2576C44.9885 64.2588 44.9885 64.26 44.9885 64.2611C44.9885 64.2623 44.9885 64.2635 44.9885 64.2646C44.9885 64.2658 44.9885 64.267 44.9885 64.2681C44.9885 64.2693 44.9885 64.2705 44.9885 64.2716C44.9885 64.2728 44.9885 64.274 44.9885 64.2751C44.9885 64.2763 44.9885 64.2775 44.9885 64.2786C44.9885 64.2798 44.9885 64.281 44.9885 64.2821C44.9885 64.2833 44.9885 64.2845 44.9885 64.2856C44.9885 64.2868 44.9885 64.288 44.9885 64.2891C44.9885 64.2903 44.9885 64.2915 44.9885 64.2927C44.9885 64.2938 44.9885 64.295 44.9885 64.2962C44.9885 64.2973 44.9885 64.2985 44.9885 64.2997C44.9885 64.3008 44.9885 64.302 44.9885 64.3032C44.9885 64.3044 44.9885 64.3055 44.9885 64.3067C44.9885 64.3079 44.9885 64.309 44.9885 64.3102C44.9885 64.3114 44.9885 64.3126 44.9885 64.3137C44.9885 64.3149 44.9885 64.3161 44.9885 64.3173C44.9885 64.3184 44.9885 64.3196 44.9885 64.3208C44.9885 64.3219 44.9885 64.3231 44.9885 64.3243C44.9885 64.3255 44.9885 64.3266 44.9885 64.3278C44.9885 64.329 44.9885 64.3302 44.9885 64.3313C44.9885 64.3325 44.9885 64.3337 44.9885 64.3349C44.9885 64.336 44.9885 64.3372 44.9885 64.3384C44.9885 64.3396 44.9885 64.3407 44.9885 64.3419C44.9885 64.3431 44.9885 64.3443 44.9885 64.3454C44.9885 64.3466 44.9885 64.3478 44.9885 64.349C44.9885 64.3502 44.9885 64.3513 44.9885 64.3525C44.9885 64.3537 44.9885 64.3549 44.9885 64.356C44.9885 64.3572 44.9885 64.3584 44.9885 64.3596C44.9885 64.3607 44.9885 64.3619 44.9885 64.3631C44.9885 64.3643 44.9885 64.3655 44.9885 64.3666C44.9885 64.3678 44.9885 64.369 44.9885 64.3702C44.9885 64.3714 44.9885 64.3725 44.9885 64.3737C44.9885 64.3749 44.9885 64.3761 44.9885 64.3773C44.9885 64.3784 44.9885 64.3796 44.9885 64.3808C44.9885 64.382 44.9885 64.3832 44.9885 64.3843C44.9885 64.3855 44.9885 64.3867 44.9885 64.3879C44.9885 64.3891 44.9885 64.3903 44.9885 64.3914C44.9885 64.3926 44.9885 64.3938 44.9885 64.395C44.9885 64.3962 44.9885 64.3973 44.9885 64.3985C44.9885 64.3997 44.9885 64.4009 44.9885 64.4021C44.9885 64.4033 44.9885 64.4044 44.9885 64.4056C44.9885 64.4068 44.9885 64.408 44.9885 64.4092C44.9885 64.4104 44.9885 64.4115 44.9885 64.4127C44.9885 64.4139 44.9885 64.4151 44.9885 64.4163C44.9885 64.4175 44.9885 64.4187 44.9885 64.4198C44.9885 64.421 44.9885 64.4222 44.9885 64.4234C44.9885 64.4246 44.9885 64.4258 44.9885 64.427C44.9885 64.4281 44.9885 64.4293 44.9885 64.4305C44.9885 64.4317 44.9885 64.4329 44.9885 64.4341C44.9885 64.4353 44.9885 64.4365 44.9885 64.4376C44.9885 64.4388 44.9885 64.44 44.9885 64.4412C44.9885 64.4424 44.9885 64.4436 44.9885 64.4448C44.9885 64.446 44.9885 64.4471 44.9885 64.4483C44.9885 64.4495 44.9885 64.4507 44.9885 64.4519C44.9885 64.4531 44.9885 64.4543 44.9885 64.4555C44.9885 64.4567 44.9885 64.4579 44.9885 64.459C44.9885 64.4602 44.9885 64.4614 44.9885 64.4626C44.9885 64.4638 44.9885 64.465 44.9885 64.4662C44.9885 64.4674 44.9885 64.4686 44.9885 64.4698C44.9885 64.471 44.9885 64.4721 44.9885 64.4733C44.9885 64.4745 44.9885 64.4757 44.9885 64.4769C44.9885 64.4781 44.9885 64.4793 44.9885 64.4805C44.9885 64.4817 44.9885 64.4829 44.9885 64.4841C44.9885 64.4853 44.9885 64.4865 44.9885 64.4877C44.9885 64.4888 44.9885 64.49 44.9885 64.4912C44.9885 64.4924 44.9885 64.4936 44.9885 64.4948C44.9885 64.496 44.9885 64.4972 44.9885 64.4984C44.9885 64.4996 44.9885 64.5008 44.9885 64.502C44.9885 64.5032 44.9885 64.5044 44.9885 64.5056C44.9885 64.5068 44.9885 64.508 44.9885 64.5092C44.9885 64.5104 44.9885 64.5116 44.9885 64.5128C44.9885 64.514 44.9885 64.5152 44.9885 64.5163C44.9885 64.5175 44.9885 64.5187 44.9885 64.5199C44.9885 64.5211 44.9885 64.5223 44.9885 64.5235C44.9885 64.5247 44.9885 64.5259 44.9885 64.5271C44.9885 64.5283 44.9885 64.5295 44.9885 64.5307C44.9885 64.5319 44.9885 64.5331 44.9885 64.5343C44.9885 64.5355 44.9885 64.5367 44.9885 64.5379C44.9885 64.5391 44.9885 64.5403 44.9885 64.5415C44.9885 64.5427 44.9885 64.5439 44.9885 64.5451C44.9885 64.5463 44.9885 64.5475 44.9885 64.5487C44.9885 64.5499 44.9885 64.5511 44.9885 64.5523C44.9885 64.5535 44.9885 64.5547 44.9885 64.5559C44.9885 64.5571 44.9885 64.5583 44.9885 64.5595C44.9885 64.5607 44.9885 64.562 44.9885 64.5632C44.9885 64.5644 44.9885 64.5656 44.9885 64.5668C44.9885 64.568 44.9885 64.5692 44.9885 64.5704C44.9885 64.5716 44.9885 64.5728 44.9885 64.574C44.9885 64.5752 44.9885 64.5764 44.9885 64.5776C44.9885 64.5788 44.9885 64.58 44.9885 64.5812C44.9885 64.5824 44.9885 64.5836 44.9885 64.5848C44.9885 64.586 44.9885 64.5872 44.9885 64.5884C44.9885 64.5897 44.9885 64.5909 44.9885 64.5921C44.9885 64.5933 44.9885 64.5945 44.9885 64.5957C44.9885 64.5969 44.9885 64.5981 44.9885 64.5993C44.9885 64.6005 44.9885 64.6017 44.9885 64.6029C44.9885 64.6041 44.9885 64.6053 44.9885 64.6066C44.9885 64.6078 44.9885 64.609 44.9885 64.6102C44.9885 64.6114 44.9885 64.6126 44.9885 64.6138C44.9885 64.615 44.9885 64.6162 44.9885 64.6174C44.9885 64.6186 44.9885 64.6199 44.9885 64.6211C44.9885 64.6223 44.9885 64.6235 44.9885 64.6247C44.9885 64.6259 44.9885 64.6271 44.9885 64.6283C44.9885 64.6295 44.9885 64.6307 44.9885 64.632C44.9885 64.6332 44.9885 64.6344 44.9885 64.6356C44.9885 64.6368 44.9885 64.638 44.9885 64.6392C44.9885 64.6404 44.9885 64.6417 44.9885 64.6429C44.9885 64.6441 44.9885 64.6453 44.9885 64.6465C44.9885 64.6477 44.9885 64.6489 44.9885 64.6501C44.9885 64.6514 44.9885 64.6526 44.9885 64.6538C44.9885 64.655 44.9885 64.6562 44.9885 64.6574C44.9885 64.6586 44.9885 64.6599 44.9885 64.6611C44.9885 64.6623 44.9885 64.6635 44.9885 64.6647C44.9885 64.6659 44.9885 64.6671 44.9885 64.6684C44.9885 64.6696 44.9885 64.6708 44.9885 64.672C44.9885 64.6732 44.9885 64.6744 44.9885 64.6757C44.9885 64.6769 44.9885 64.6781 44.9885 64.6793C44.9885 64.6805 44.9885 64.6817 44.9885 64.683C44.9885 64.6842 44.9885 64.6854 44.9885 64.6866C44.9885 64.6878 44.9885 64.6891 44.9885 64.6903C44.9885 64.6915 44.9885 64.6927 44.9885 64.6939C44.9885 64.6951 44.9885 64.6964 44.9885 64.6976C44.9885 64.6988 44.9885 64.7 44.9885 64.7012C44.9885 64.7025 44.9885 64.7037 44.9885 64.7049C44.9885 64.7061 44.9885 64.7073 44.9885 64.7086C44.9885 64.7098 44.9885 64.711 44.9885 64.7122C44.9885 64.7134 44.9885 64.7147 44.9885 64.7159C44.9885 64.7171 44.9885 64.7183 44.9885 64.7195C44.9885 64.7208 44.9885 64.722 44.9885 64.7232C44.9885 64.7244 44.9885 64.7257 44.9885 64.7269C44.9885 64.7281 44.9885 64.7293 44.9885 64.7305C44.9885 64.7318 44.9885 64.733 44.9885 64.7342C44.9885 64.7354 44.9885 64.7367 44.9885 64.7379C44.9885 64.7391 44.9885 64.7403 44.9885 64.7416C44.9885 64.7428 44.9885 64.744 44.9885 64.7452C44.9885 64.7465 44.9885 64.7477 44.9885 64.7489C44.9885 64.7501 44.9885 64.7514 44.9885 64.7526C44.9885 64.7538 44.9885 64.755 44.9885 64.7563C44.9885 64.7575 44.9885 64.7587 44.9885 64.7599C44.9885 64.7612 44.9885 64.7624 44.9885 64.7636C44.9885 64.7649 44.9885 64.7661 44.9885 64.7673C44.9885 64.7685 44.9885 64.7698 44.9885 64.771C44.9885 64.7722 44.9885 64.7734 44.9885 64.7747C44.9885 64.7759 44.9885 64.7771 44.9885 64.7784C44.9885 64.7796 44.9885 64.7808 44.9885 64.782C44.9885 64.7833 44.9885 64.7845 44.9885 64.7857C44.9885 64.787 44.9885 64.7882 44.9885 64.7894C44.9885 64.7907 44.9885 64.7919 44.9885 64.7931C44.9885 64.7943 44.9885 64.7956 44.9885 64.7968C44.9885 64.798 44.9885 64.7993 44.9885 64.8005C44.9885 64.8017 44.9885 64.803 44.9885 64.8042C44.9885 64.8054 44.9885 64.8067 44.9885 64.8079C44.9885 64.8091 44.9885 64.8104 44.9885 64.8116C44.9885 64.8128 44.9885 64.8141 44.9885 64.8153C44.9885 64.8165 44.9885 64.8178 44.9885 64.819C44.9885 64.8202 44.9885 64.8215 44.9885 64.8227C44.9885 64.8239 44.9885 64.8252 44.9885 64.8264C44.9885 64.8276 44.9885 64.8289 44.9885 64.8301C44.9885 64.8313 44.9885 64.8326 44.9885 64.8338C44.9885 64.835 44.9885 64.8363 44.9885 64.8375C44.9885 64.8387 44.9885 64.84 44.9885 64.8412C44.9885 64.8424 44.9885 64.8437 44.9885 64.8449C44.9885 64.8462 44.9885 64.8474 44.9885 64.8486C44.9885 64.8499 44.9885 64.8511 44.9885 64.8523C44.9885 64.8536 44.9885 64.8548 44.9885 64.8561C44.9885 64.8573 44.9885 64.8585 44.9885 64.8598C44.9885 64.861 44.9885 64.8622 44.9885 64.8635C44.9885 64.8647 44.9885 64.866 44.9885 64.8672C44.9885 64.8684 44.9885 64.8697 44.9885 64.8709C44.9885 64.8722 44.9885 64.8734 44.9885 64.8746C44.9885 64.8759 44.9885 64.8771 44.9885 64.8784C44.9885 64.8796 44.9885 64.8808 44.9885 64.8821C44.9885 64.8833 44.9885 64.8846 44.9885 64.8858C44.9885 64.887 44.9885 64.8883 44.9885 64.8895C44.9885 64.8908 44.9885 64.892 44.9885 64.8933C44.9885 64.8945 44.9885 64.8957 44.9885 64.897C44.9885 64.8982 44.9885 64.8995 44.9885 64.9007C44.9885 64.902 44.9885 64.9032 44.9885 64.9044C44.9885 64.9057 44.9885 64.9069 44.9885 64.9082C44.9885 64.9094 44.9885 64.9107 44.9885 64.9119C44.9885 64.9132 44.9885 64.9144 44.9885 64.9156C44.9885 64.9169 44.9885 64.9181 44.9885 64.9194C44.9885 64.9206 44.9885 64.9219 44.9885 64.9231C44.9885 64.9244 44.9885 64.9256 44.9885 64.9268C44.9885 64.9281 44.9885 64.9293 44.9885 64.9306C44.9885 64.9318 44.9885 64.9331 44.9885 64.9343C44.9885 64.9356 44.9885 64.9368 44.9885 64.9381C44.9885 64.9393 44.9885 64.9406 44.9885 64.9418C44.9885 64.9431 44.9885 64.9443 44.9885 64.9456C44.9885 64.9468 44.9885 64.9481 44.9885 64.9493C44.9885 64.9506 44.9885 64.9518 44.9885 64.9531C44.9885 64.9543 44.9885 64.9555 44.9885 64.9568C44.9885 64.958 44.9885 64.9593 44.9885 64.9605C44.9885 64.9618 44.9885 64.963 44.9885 64.9643C44.9885 64.9655 44.9885 64.9668 44.9885 64.9681C44.9885 64.9693 44.9885 64.9706 44.9885 64.9718C44.9885 64.9731 44.9885 64.9743 44.9885 64.9756C44.9885 64.9768 44.9885 64.9781 44.9885 64.9793C44.9885 64.9806 44.9885 64.9818 44.9885 64.9831C44.9885 64.9843 44.9885 64.9856 44.9885 64.9868C44.9885 64.9881 44.9885 64.9893 44.9885 64.9906C44.9885 64.9918 44.9885 64.9931 44.9885 64.9944C44.9885 64.9956 44.9885 64.9969 44.9885 64.9981C44.9885 64.9994 44.9885 65.0006 44.9885 65.0019C44.9885 65.0031 44.9885 65.0044 44.9885 65.0056C44.9885 65.0069 44.9885 65.0082 44.9885 65.0094C44.9885 65.0107 44.9885 65.0119 44.9885 65.0132C44.9885 65.0144 44.9885 65.0157 44.9885 65.0169C44.9885 65.0182 44.9885 65.0195 44.9885 65.0207C44.9885 65.022 44.9885 65.0232 44.9885 65.0245C44.9885 65.0257 44.9885 65.027 44.9885 65.0283C44.9885 65.0295 44.9885 65.0308 44.9885 65.032C44.9885 65.0333 44.9885 65.0346 44.9885 65.0358C44.9885 65.0371 44.9885 65.0383 44.9885 65.0396C44.9885 65.0409 44.9885 65.0421 44.9885 65.0434C44.9885 65.0446 44.9885 65.0459 44.9885 65.0471C44.9885 65.0484 44.9885 65.0497 44.9885 65.0509C44.9885 65.0522 44.9885 65.0535 44.9885 65.0547C44.9885 65.056 44.9885 65.0572 44.9885 65.0585C44.9885 65.0598 44.9885 65.061 44.9885 65.0623C44.9885 65.0635 44.9885 65.0648 44.9885 65.0661C44.9885 65.0673 44.9885 65.0686 44.9885 65.0699C44.9885 65.0711 44.9885 65.0724 44.9885 65.0736C44.9885 65.0749 44.9885 65.0762 44.9885 65.0774C44.9885 65.0787 44.9885 65.08 44.9885 65.0812C44.9885 65.0825 44.9885 65.0838 44.9885 65.085C44.9885 65.0863 44.9885 65.0875 44.9885 65.0888C44.9885 65.0901 44.9885 65.0913 44.9885 65.0926C44.9885 65.0939 44.9885 65.0951 44.9885 65.0964C44.9885 65.0977 44.9885 65.0989 44.9885 65.1002C44.9885 65.1015 44.9885 65.1027 44.9885 65.104C44.9885 65.1053 44.9885 65.1065 44.9885 65.1078C44.9885 65.1091 44.9885 65.1103 44.9885 65.1116C44.9885 65.1129 44.9885 65.1141 44.9885 65.1154C44.9885 65.1167 44.9885 65.1179 44.9885 65.1192C44.9885 65.1205 44.9885 65.1217 44.9885 65.123C44.9885 65.1243 44.9885 65.1256 44.9885 65.1268C44.9885 65.1281 44.9885 65.1294 44.9885 65.1306C44.9885 65.1319 44.9885 65.1332 44.9885 65.1344C44.9885 65.1357 44.9885 65.137 44.9885 65.1383C44.9885 65.1395 44.9885 65.1408 44.9885 65.1421C44.9885 65.1433 44.9885 65.1446 44.9885 65.1459C44.9885 65.1471 44.9885 65.1484 44.9885 65.1497C44.9885 65.151 44.9885 65.1522 44.9885 65.1535C44.9885 65.1548 44.9885 65.1561 44.9885 65.1573C44.9885 65.1586 44.9885 65.1599 44.9885 65.1611C44.9885 65.1624 44.9885 65.1637 44.9885 65.165C44.9885 65.1662 44.9885 65.1675 44.9885 65.1688C44.9885 65.1701 44.9885 65.1713 44.9885 65.1726C44.9885 65.1739 44.9885 65.1752 44.9885 65.1764C44.9885 65.1777 44.9885 65.179 44.9885 65.1803C44.9885 65.1815 44.9885 65.1828 44.9885 65.1841C44.9885 65.1854 44.9885 65.1866 44.9885 65.1879C44.9885 65.1892 44.9885 65.1905 44.9885 65.1917C44.9885 65.193 44.9885 65.1943 44.9885 65.1956C44.9885 65.1969 44.9885 65.1981 44.9885 65.1994C44.9885 65.2007 44.9885 65.202 44.9885 65.2032C44.9885 65.2045 44.9885 65.2058 44.9885 65.2071C44.9885 65.2084 44.9885 65.2096 44.9885 65.2109C44.9885 65.2122 44.9885 65.2135 44.9885 65.2147C44.9885 65.216 44.9885 65.2173 44.9885 65.2186C44.9885 65.2199 44.9885 65.2211 44.9885 65.2224C44.9885 65.2237 44.9885 65.225 44.9885 65.2263C44.9885 65.2275 44.9885 65.2288 44.9885 65.2301C44.9885 65.2314 44.9885 65.2327 44.9885 65.234C44.9885 65.2352 44.9885 65.2365 44.9885 65.2378C44.9885 65.2391 44.9885 65.2404 44.9885 65.2416C44.9885 65.2429 44.9885 65.2442 44.9885 65.2455C44.9885 65.2468 44.9885 65.2481 44.9885 65.2493C44.9885 65.2506 44.9885 65.2519 44.9885 65.2532C44.9885 65.2545 44.9885 65.2558 44.9885 65.257C44.9885 65.2583 44.9885 65.2596 44.9885 65.2609C44.9885 65.2622 44.9885 65.2635 44.9885 65.2648C44.9885 65.266 44.9885 65.2673 44.9885 65.2686C44.9885 65.2699 44.9885 65.2712 44.9885 65.2725C44.9885 65.2737 44.9885 65.275 44.9885 65.2763C44.9885 65.2776 44.9885 65.2789 44.9885 65.2802C44.9885 65.2815 44.9885 65.2828 44.9885 65.284C44.9885 65.2853 44.9885 65.2866 44.9885 65.2879C44.9885 65.2892 44.9885 65.2905 44.9885 65.2918C44.9885 65.2931 44.9885 65.2943 44.9885 65.2956C44.9885 65.2969 44.9885 65.2982 44.9885 65.2995C44.9885 65.3008 44.9885 65.3021 44.9885 65.3034C44.9885 65.3047 44.9885 65.3059 44.9885 65.3072C44.9885 65.3085 44.9885 65.3098 44.9885 65.3111C44.9885 65.3124 44.9885 65.3137 44.9885 65.315C44.9885 65.3163 44.9885 65.3176 44.9885 65.3188C44.9885 65.3201 44.9885 65.3214 44.9885 65.3227C44.9885 65.324 44.9885 65.3253 44.9885 65.3266C44.9885 65.3279 44.9885 65.3292 44.9885 65.3305C44.9885 65.3318 44.9885 65.3331 44.9885 65.3343C44.9885 65.3356 44.9885 65.3369 44.9885 65.3382C44.9885 65.3395 44.9885 65.3408 44.9885 65.3421C44.9885 65.3434 44.9885 65.3447 44.9885 65.346C44.9885 65.3473 44.9885 65.3486 44.9885 65.3499C44.9885 65.3512 44.9885 65.3525 44.9885 65.3538C44.9885 65.3551 44.9885 65.3563 44.9885 65.3576C44.9885 65.3589 44.9885 65.3602 44.9885 65.3615C44.9885 65.3628 44.9885 65.3641 44.9885 65.3654C44.9885 65.3667 44.9885 65.368 44.9885 65.3693C44.9885 65.3706 44.9885 65.3719 44.9885 65.3732C44.9885 65.3745 44.9885 65.3758 44.9885 65.3771C44.9885 65.3784 44.9885 65.3797 44.9885 65.381C44.9885 65.3823 44.9885 65.3836 44.9885 65.3849C44.9885 65.3862 44.9885 65.3875 44.9885 65.3888C44.9885 65.3901 44.9885 65.3914 44.9885 65.3927C44.9885 65.394 44.9885 65.3953 44.9885 65.3966C44.9885 65.3979 44.9885 65.3992 44.9885 65.4005C44.9885 65.4018 44.9885 65.4031 44.9885 65.4044C44.9885 65.4057 44.9885 65.407 44.9885 65.4083C44.9885 65.4096 44.9885 65.4109 44.9885 65.4122C44.9885 65.4135 44.9885 65.4148 44.9885 65.4161C44.9885 65.4174 44.9885 65.4187 44.9885 65.42C44.9885 65.4213 44.9885 65.4226 44.9885 65.4239C44.9885 65.4252 44.9885 65.4265 44.9885 65.4278C44.9885 65.4291 44.9885 65.4304 44.9885 65.4317C44.9885 65.433 44.9885 65.4343 44.9885 65.4356C44.9885 65.4369 44.9885 65.4382 44.9885 65.4395C44.9885 65.4408 44.9885 65.4422 44.9885 65.4435C44.9885 65.4448 44.9885 65.4461 44.9885 65.4474C44.9885 65.4487 44.9885 65.45 44.9885 65.4513C44.9885 65.4526 44.9885 65.4539 44.9885 65.4552C44.9885 65.4565 44.9885 65.4578 44.9885 65.4591C44.9885 65.4604 44.9885 65.4617 44.9885 65.463C44.9885 65.4644 44.9885 65.4657 44.9885 65.467C44.9885 65.4683 44.9885 65.4696 44.9885 65.4709C44.9885 65.4722 44.9885 65.4735 44.9885 65.4748C44.9885 65.4761 44.9885 65.4774 44.9885 65.4787C44.9885 65.4801 44.9885 65.4814 44.9885 65.4827C44.9885 65.484 44.9885 65.4853 44.9885 65.4866C44.9885 65.4879 44.9885 65.4892 44.9885 65.4905C44.9885 65.4918 44.9885 65.4932 44.9885 65.4945C44.9885 65.4958 44.9885 65.4971 44.9885 65.4984C44.9885 65.4997 44.9885 65.501 44.9885 65.5023C44.9885 65.5036 44.9885 65.505 44.9885 65.5063C44.9885 65.5076 44.9885 65.5089 44.9885 65.5102C44.9885 65.5115 44.9885 65.5128 44.9885 65.5141C44.9885 65.5155 44.9885 65.5168 44.9885 65.5181C44.9885 65.5194 44.9885 65.5207 44.9885 65.522C44.9885 65.5233 44.9885 65.5246 44.9885 65.526C44.9885 65.5273 44.9885 65.5286 44.9885 65.5299C44.9885 65.5312 44.9885 65.5325 44.9885 65.5338C44.9885 65.5352 44.9885 65.5365 44.9885 65.5378C44.9885 65.5391 44.9885 65.5404 44.9885 65.5417C44.9885 65.5431 44.9885 65.5444 44.9885 65.5457C44.9885 65.547 44.9885 65.5483 44.9885 65.5496C44.9885 65.551 44.9885 65.5523 44.9885 65.5536C44.9885 65.5549 44.9885 65.5562 44.9885 65.5575C44.9885 65.5589 44.9885 65.5602 44.9885 65.5615C44.9885 65.5628 44.9885 65.5641 44.9885 65.5655C44.9885 65.5668 44.9885 65.5681 44.9885 65.5694C44.9885 65.5707 44.9885 65.572 44.9885 65.5734C44.9885 65.5747 44.9885 65.576 44.9885 65.5773C44.9885 65.5786 44.9885 65.58 44.9885 65.5813C44.9885 65.5826 44.9885 65.5839 44.9885 65.5852C44.9885 65.5866 44.9885 65.5879 44.9885 65.5892C44.9885 65.5905 44.9885 65.5919 44.9885 65.5932C44.9885 65.5945 44.9885 65.5958 44.9885 65.5971C44.9885 65.5985 44.9885 65.5998 44.9885 65.6011C44.9885 65.6024 44.9885 65.6037 44.9885 65.6051C44.9885 65.6064 44.9885 65.6077 44.9885 65.609C44.9885 65.6104 44.9885 65.6117 44.9885 65.613C44.9885 65.6143 44.9885 65.6157 44.9885 65.617C44.9885 65.6183 44.9885 65.6196 44.9885 65.621C44.9885 65.6223 44.9885 65.6236 44.9885 65.6249C44.9885 65.6263 44.9885 65.6276 44.9885 65.6289C44.9885 65.6302 44.9885 65.6316 44.9885 65.6329C44.9885 65.6342 44.9885 65.6355 44.9885 65.6369C44.9885 65.6382 44.9885 65.6395 44.9885 65.6408C44.9885 65.6422 44.9885 65.6435 44.9885 65.6448C44.9885 65.6462 44.9885 65.6475 44.9885 65.6488C44.9885 65.6501 44.9885 65.6515 44.9885 65.6528C44.9885 65.6541 44.9885 65.6554 44.9885 65.6568C44.9885 65.6581 44.9885 65.6594 44.9885 65.6608C44.9885 65.6621 44.9885 65.6634 44.9885 65.6647C44.9885 65.6661 44.9885 65.6674 44.9885 65.6687C44.9885 65.6701 44.9885 65.6714 44.9885 65.6727C44.9885 65.6741 44.9885 65.6754 44.9885 65.6767C44.9885 65.6781 44.9885 65.6794 44.9885 65.6807C44.9885 65.682 44.9885 65.6834 44.9885 65.6847C44.9885 65.686 44.9885 65.6874 44.9885 65.6887C44.9885 65.69 44.9885 65.6914 44.9885 65.6927C44.9885 65.694 44.9885 65.6954 44.9885 65.6967C44.9885 65.698 44.9885 65.6994 44.9885 65.7007C44.9885 65.702 44.9885 65.7034 44.9885 65.7047C44.9885 65.706 44.9885 65.7074 44.9885 65.7087C44.9885 65.71 44.9885 65.7114 44.9885 65.7127C44.9885 65.714 44.9885 65.7154 44.9885 65.7167C44.9885 65.718 44.9885 65.7194 44.9885 65.7207C44.9885 65.722 44.9885 65.7234 44.9885 65.7247C44.9885 65.7261 44.9885 65.7274 44.9885 65.7287C44.9885 65.7301 44.9885 65.7314 44.9885 65.7327C44.9885 65.7341 44.9885 65.7354 44.9885 65.7368C44.9885 65.7381 44.9885 65.7394 44.9885 65.7408C44.9885 65.7421 44.9885 65.7434 44.9885 65.7448C44.9885 65.7461 44.9885 65.7475 44.9885 65.7488C44.9885 65.7501 44.9885 65.7515 44.9885 65.7528C44.9885 65.7541 44.9885 65.7555 44.9885 65.7568H47.9885C47.9885 65.7555 47.9885 65.7541 47.9885 65.7528C47.9885 65.7515 47.9885 65.7501 47.9885 65.7488C47.9885 65.7475 47.9885 65.7461 47.9885 65.7448C47.9885 65.7434 47.9885 65.7421 47.9885 65.7408C47.9885 65.7394 47.9885 65.7381 47.9885 65.7368C47.9885 65.7354 47.9885 65.7341 47.9885 65.7327C47.9885 65.7314 47.9885 65.7301 47.9885 65.7287C47.9885 65.7274 47.9885 65.7261 47.9885 65.7247C47.9885 65.7234 47.9885 65.722 47.9885 65.7207C47.9885 65.7194 47.9885 65.718 47.9885 65.7167C47.9885 65.7154 47.9885 65.714 47.9885 65.7127C47.9885 65.7114 47.9885 65.71 47.9885 65.7087C47.9885 65.7074 47.9885 65.706 47.9885 65.7047C47.9885 65.7034 47.9885 65.702 47.9885 65.7007C47.9885 65.6994 47.9885 65.698 47.9885 65.6967C47.9885 65.6954 47.9885 65.694 47.9885 65.6927C47.9885 65.6914 47.9885 65.69 47.9885 65.6887C47.9885 65.6874 47.9885 65.686 47.9885 65.6847C47.9885 65.6834 47.9885 65.682 47.9885 65.6807C47.9885 65.6794 47.9885 65.6781 47.9885 65.6767C47.9885 65.6754 47.9885 65.6741 47.9885 65.6727C47.9885 65.6714 47.9885 65.6701 47.9885 65.6687C47.9885 65.6674 47.9885 65.6661 47.9885 65.6647C47.9885 65.6634 47.9885 65.6621 47.9885 65.6608C47.9885 65.6594 47.9885 65.6581 47.9885 65.6568C47.9885 65.6554 47.9885 65.6541 47.9885 65.6528C47.9885 65.6515 47.9885 65.6501 47.9885 65.6488C47.9885 65.6475 47.9885 65.6462 47.9885 65.6448C47.9885 65.6435 47.9885 65.6422 47.9885 65.6408C47.9885 65.6395 47.9885 65.6382 47.9885 65.6369C47.9885 65.6355 47.9885 65.6342 47.9885 65.6329C47.9885 65.6316 47.9885 65.6302 47.9885 65.6289C47.9885 65.6276 47.9885 65.6263 47.9885 65.6249C47.9885 65.6236 47.9885 65.6223 47.9885 65.621C47.9885 65.6196 47.9885 65.6183 47.9885 65.617C47.9885 65.6157 47.9885 65.6143 47.9885 65.613C47.9885 65.6117 47.9885 65.6104 47.9885 65.609C47.9885 65.6077 47.9885 65.6064 47.9885 65.6051C47.9885 65.6037 47.9885 65.6024 47.9885 65.6011C47.9885 65.5998 47.9885 65.5985 47.9885 65.5971C47.9885 65.5958 47.9885 65.5945 47.9885 65.5932C47.9885 65.5919 47.9885 65.5905 47.9885 65.5892C47.9885 65.5879 47.9885 65.5866 47.9885 65.5852C47.9885 65.5839 47.9885 65.5826 47.9885 65.5813C47.9885 65.58 47.9885 65.5786 47.9885 65.5773C47.9885 65.576 47.9885 65.5747 47.9885 65.5734C47.9885 65.572 47.9885 65.5707 47.9885 65.5694C47.9885 65.5681 47.9885 65.5668 47.9885 65.5655C47.9885 65.5641 47.9885 65.5628 47.9885 65.5615C47.9885 65.5602 47.9885 65.5589 47.9885 65.5575C47.9885 65.5562 47.9885 65.5549 47.9885 65.5536C47.9885 65.5523 47.9885 65.551 47.9885 65.5496C47.9885 65.5483 47.9885 65.547 47.9885 65.5457C47.9885 65.5444 47.9885 65.5431 47.9885 65.5417C47.9885 65.5404 47.9885 65.5391 47.9885 65.5378C47.9885 65.5365 47.9885 65.5352 47.9885 65.5338C47.9885 65.5325 47.9885 65.5312 47.9885 65.5299C47.9885 65.5286 47.9885 65.5273 47.9885 65.526C47.9885 65.5246 47.9885 65.5233 47.9885 65.522C47.9885 65.5207 47.9885 65.5194 47.9885 65.5181C47.9885 65.5168 47.9885 65.5155 47.9885 65.5141C47.9885 65.5128 47.9885 65.5115 47.9885 65.5102C47.9885 65.5089 47.9885 65.5076 47.9885 65.5063C47.9885 65.505 47.9885 65.5036 47.9885 65.5023C47.9885 65.501 47.9885 65.4997 47.9885 65.4984C47.9885 65.4971 47.9885 65.4958 47.9885 65.4945C47.9885 65.4932 47.9885 65.4918 47.9885 65.4905C47.9885 65.4892 47.9885 65.4879 47.9885 65.4866C47.9885 65.4853 47.9885 65.484 47.9885 65.4827C47.9885 65.4814 47.9885 65.4801 47.9885 65.4787C47.9885 65.4774 47.9885 65.4761 47.9885 65.4748C47.9885 65.4735 47.9885 65.4722 47.9885 65.4709C47.9885 65.4696 47.9885 65.4683 47.9885 65.467C47.9885 65.4657 47.9885 65.4644 47.9885 65.463C47.9885 65.4617 47.9885 65.4604 47.9885 65.4591C47.9885 65.4578 47.9885 65.4565 47.9885 65.4552C47.9885 65.4539 47.9885 65.4526 47.9885 65.4513C47.9885 65.45 47.9885 65.4487 47.9885 65.4474C47.9885 65.4461 47.9885 65.4448 47.9885 65.4435C47.9885 65.4422 47.9885 65.4408 47.9885 65.4395C47.9885 65.4382 47.9885 65.4369 47.9885 65.4356C47.9885 65.4343 47.9885 65.433 47.9885 65.4317C47.9885 65.4304 47.9885 65.4291 47.9885 65.4278C47.9885 65.4265 47.9885 65.4252 47.9885 65.4239C47.9885 65.4226 47.9885 65.4213 47.9885 65.42C47.9885 65.4187 47.9885 65.4174 47.9885 65.4161C47.9885 65.4148 47.9885 65.4135 47.9885 65.4122C47.9885 65.4109 47.9885 65.4096 47.9885 65.4083C47.9885 65.407 47.9885 65.4057 47.9885 65.4044C47.9885 65.4031 47.9885 65.4018 47.9885 65.4005C47.9885 65.3992 47.9885 65.3979 47.9885 65.3966C47.9885 65.3953 47.9885 65.394 47.9885 65.3927C47.9885 65.3914 47.9885 65.3901 47.9885 65.3888C47.9885 65.3875 47.9885 65.3862 47.9885 65.3849C47.9885 65.3836 47.9885 65.3823 47.9885 65.381C47.9885 65.3797 47.9885 65.3784 47.9885 65.3771C47.9885 65.3758 47.9885 65.3745 47.9885 65.3732C47.9885 65.3719 47.9885 65.3706 47.9885 65.3693C47.9885 65.368 47.9885 65.3667 47.9885 65.3654C47.9885 65.3641 47.9885 65.3628 47.9885 65.3615C47.9885 65.3602 47.9885 65.3589 47.9885 65.3576C47.9885 65.3563 47.9885 65.3551 47.9885 65.3538C47.9885 65.3525 47.9885 65.3512 47.9885 65.3499C47.9885 65.3486 47.9885 65.3473 47.9885 65.346C47.9885 65.3447 47.9885 65.3434 47.9885 65.3421C47.9885 65.3408 47.9885 65.3395 47.9885 65.3382C47.9885 65.3369 47.9885 65.3356 47.9885 65.3343C47.9885 65.3331 47.9885 65.3318 47.9885 65.3305C47.9885 65.3292 47.9885 65.3279 47.9885 65.3266C47.9885 65.3253 47.9885 65.324 47.9885 65.3227C47.9885 65.3214 47.9885 65.3201 47.9885 65.3188C47.9885 65.3176 47.9885 65.3163 47.9885 65.315C47.9885 65.3137 47.9885 65.3124 47.9885 65.3111C47.9885 65.3098 47.9885 65.3085 47.9885 65.3072C47.9885 65.3059 47.9885 65.3047 47.9885 65.3034C47.9885 65.3021 47.9885 65.3008 47.9885 65.2995C47.9885 65.2982 47.9885 65.2969 47.9885 65.2956C47.9885 65.2943 47.9885 65.2931 47.9885 65.2918C47.9885 65.2905 47.9885 65.2892 47.9885 65.2879C47.9885 65.2866 47.9885 65.2853 47.9885 65.284C47.9885 65.2828 47.9885 65.2815 47.9885 65.2802C47.9885 65.2789 47.9885 65.2776 47.9885 65.2763C47.9885 65.275 47.9885 65.2737 47.9885 65.2725C47.9885 65.2712 47.9885 65.2699 47.9885 65.2686C47.9885 65.2673 47.9885 65.266 47.9885 65.2648C47.9885 65.2635 47.9885 65.2622 47.9885 65.2609C47.9885 65.2596 47.9885 65.2583 47.9885 65.257C47.9885 65.2558 47.9885 65.2545 47.9885 65.2532C47.9885 65.2519 47.9885 65.2506 47.9885 65.2493C47.9885 65.2481 47.9885 65.2468 47.9885 65.2455C47.9885 65.2442 47.9885 65.2429 47.9885 65.2416C47.9885 65.2404 47.9885 65.2391 47.9885 65.2378C47.9885 65.2365 47.9885 65.2352 47.9885 65.234C47.9885 65.2327 47.9885 65.2314 47.9885 65.2301C47.9885 65.2288 47.9885 65.2275 47.9885 65.2263C47.9885 65.225 47.9885 65.2237 47.9885 65.2224C47.9885 65.2211 47.9885 65.2199 47.9885 65.2186C47.9885 65.2173 47.9885 65.216 47.9885 65.2147C47.9885 65.2135 47.9885 65.2122 47.9885 65.2109C47.9885 65.2096 47.9885 65.2084 47.9885 65.2071C47.9885 65.2058 47.9885 65.2045 47.9885 65.2032C47.9885 65.202 47.9885 65.2007 47.9885 65.1994C47.9885 65.1981 47.9885 65.1969 47.9885 65.1956C47.9885 65.1943 47.9885 65.193 47.9885 65.1917C47.9885 65.1905 47.9885 65.1892 47.9885 65.1879C47.9885 65.1866 47.9885 65.1854 47.9885 65.1841C47.9885 65.1828 47.9885 65.1815 47.9885 65.1803C47.9885 65.179 47.9885 65.1777 47.9885 65.1764C47.9885 65.1752 47.9885 65.1739 47.9885 65.1726C47.9885 65.1713 47.9885 65.1701 47.9885 65.1688C47.9885 65.1675 47.9885 65.1662 47.9885 65.165C47.9885 65.1637 47.9885 65.1624 47.9885 65.1611C47.9885 65.1599 47.9885 65.1586 47.9885 65.1573C47.9885 65.1561 47.9885 65.1548 47.9885 65.1535C47.9885 65.1522 47.9885 65.151 47.9885 65.1497C47.9885 65.1484 47.9885 65.1471 47.9885 65.1459C47.9885 65.1446 47.9885 65.1433 47.9885 65.1421C47.9885 65.1408 47.9885 65.1395 47.9885 65.1383C47.9885 65.137 47.9885 65.1357 47.9885 65.1344C47.9885 65.1332 47.9885 65.1319 47.9885 65.1306C47.9885 65.1294 47.9885 65.1281 47.9885 65.1268C47.9885 65.1256 47.9885 65.1243 47.9885 65.123C47.9885 65.1217 47.9885 65.1205 47.9885 65.1192C47.9885 65.1179 47.9885 65.1167 47.9885 65.1154C47.9885 65.1141 47.9885 65.1129 47.9885 65.1116C47.9885 65.1103 47.9885 65.1091 47.9885 65.1078C47.9885 65.1065 47.9885 65.1053 47.9885 65.104C47.9885 65.1027 47.9885 65.1015 47.9885 65.1002C47.9885 65.0989 47.9885 65.0977 47.9885 65.0964C47.9885 65.0951 47.9885 65.0939 47.9885 65.0926C47.9885 65.0913 47.9885 65.0901 47.9885 65.0888C47.9885 65.0875 47.9885 65.0863 47.9885 65.085C47.9885 65.0838 47.9885 65.0825 47.9885 65.0812C47.9885 65.08 47.9885 65.0787 47.9885 65.0774C47.9885 65.0762 47.9885 65.0749 47.9885 65.0736C47.9885 65.0724 47.9885 65.0711 47.9885 65.0699C47.9885 65.0686 47.9885 65.0673 47.9885 65.0661C47.9885 65.0648 47.9885 65.0635 47.9885 65.0623C47.9885 65.061 47.9885 65.0598 47.9885 65.0585C47.9885 65.0572 47.9885 65.056 47.9885 65.0547C47.9885 65.0535 47.9885 65.0522 47.9885 65.0509C47.9885 65.0497 47.9885 65.0484 47.9885 65.0471C47.9885 65.0459 47.9885 65.0446 47.9885 65.0434C47.9885 65.0421 47.9885 65.0409 47.9885 65.0396C47.9885 65.0383 47.9885 65.0371 47.9885 65.0358C47.9885 65.0346 47.9885 65.0333 47.9885 65.032C47.9885 65.0308 47.9885 65.0295 47.9885 65.0283C47.9885 65.027 47.9885 65.0257 47.9885 65.0245C47.9885 65.0232 47.9885 65.022 47.9885 65.0207C47.9885 65.0195 47.9885 65.0182 47.9885 65.0169C47.9885 65.0157 47.9885 65.0144 47.9885 65.0132C47.9885 65.0119 47.9885 65.0107 47.9885 65.0094C47.9885 65.0082 47.9885 65.0069 47.9885 65.0056C47.9885 65.0044 47.9885 65.0031 47.9885 65.0019C47.9885 65.0006 47.9885 64.9994 47.9885 64.9981C47.9885 64.9969 47.9885 64.9956 47.9885 64.9944C47.9885 64.9931 47.9885 64.9918 47.9885 64.9906C47.9885 64.9893 47.9885 64.9881 47.9885 64.9868C47.9885 64.9856 47.9885 64.9843 47.9885 64.9831C47.9885 64.9818 47.9885 64.9806 47.9885 64.9793C47.9885 64.9781 47.9885 64.9768 47.9885 64.9756C47.9885 64.9743 47.9885 64.9731 47.9885 64.9718C47.9885 64.9706 47.9885 64.9693 47.9885 64.9681C47.9885 64.9668 47.9885 64.9655 47.9885 64.9643C47.9885 64.963 47.9885 64.9618 47.9885 64.9605C47.9885 64.9593 47.9885 64.958 47.9885 64.9568C47.9885 64.9555 47.9885 64.9543 47.9885 64.9531C47.9885 64.9518 47.9885 64.9506 47.9885 64.9493C47.9885 64.9481 47.9885 64.9468 47.9885 64.9456C47.9885 64.9443 47.9885 64.9431 47.9885 64.9418C47.9885 64.9406 47.9885 64.9393 47.9885 64.9381C47.9885 64.9368 47.9885 64.9356 47.9885 64.9343C47.9885 64.9331 47.9885 64.9318 47.9885 64.9306C47.9885 64.9293 47.9885 64.9281 47.9885 64.9268C47.9885 64.9256 47.9885 64.9244 47.9885 64.9231C47.9885 64.9219 47.9885 64.9206 47.9885 64.9194C47.9885 64.9181 47.9885 64.9169 47.9885 64.9156C47.9885 64.9144 47.9885 64.9132 47.9885 64.9119C47.9885 64.9107 47.9885 64.9094 47.9885 64.9082C47.9885 64.9069 47.9885 64.9057 47.9885 64.9044C47.9885 64.9032 47.9885 64.902 47.9885 64.9007C47.9885 64.8995 47.9885 64.8982 47.9885 64.897C47.9885 64.8957 47.9885 64.8945 47.9885 64.8933C47.9885 64.892 47.9885 64.8908 47.9885 64.8895C47.9885 64.8883 47.9885 64.887 47.9885 64.8858C47.9885 64.8846 47.9885 64.8833 47.9885 64.8821C47.9885 64.8808 47.9885 64.8796 47.9885 64.8784C47.9885 64.8771 47.9885 64.8759 47.9885 64.8746C47.9885 64.8734 47.9885 64.8722 47.9885 64.8709C47.9885 64.8697 47.9885 64.8684 47.9885 64.8672C47.9885 64.866 47.9885 64.8647 47.9885 64.8635C47.9885 64.8622 47.9885 64.861 47.9885 64.8598C47.9885 64.8585 47.9885 64.8573 47.9885 64.8561C47.9885 64.8548 47.9885 64.8536 47.9885 64.8523C47.9885 64.8511 47.9885 64.8499 47.9885 64.8486C47.9885 64.8474 47.9885 64.8462 47.9885 64.8449C47.9885 64.8437 47.9885 64.8424 47.9885 64.8412C47.9885 64.84 47.9885 64.8387 47.9885 64.8375C47.9885 64.8363 47.9885 64.835 47.9885 64.8338C47.9885 64.8326 47.9885 64.8313 47.9885 64.8301C47.9885 64.8289 47.9885 64.8276 47.9885 64.8264C47.9885 64.8252 47.9885 64.8239 47.9885 64.8227C47.9885 64.8215 47.9885 64.8202 47.9885 64.819C47.9885 64.8178 47.9885 64.8165 47.9885 64.8153C47.9885 64.8141 47.9885 64.8128 47.9885 64.8116C47.9885 64.8104 47.9885 64.8091 47.9885 64.8079C47.9885 64.8067 47.9885 64.8054 47.9885 64.8042C47.9885 64.803 47.9885 64.8017 47.9885 64.8005C47.9885 64.7993 47.9885 64.798 47.9885 64.7968C47.9885 64.7956 47.9885 64.7943 47.9885 64.7931C47.9885 64.7919 47.9885 64.7907 47.9885 64.7894C47.9885 64.7882 47.9885 64.787 47.9885 64.7857C47.9885 64.7845 47.9885 64.7833 47.9885 64.782C47.9885 64.7808 47.9885 64.7796 47.9885 64.7784C47.9885 64.7771 47.9885 64.7759 47.9885 64.7747C47.9885 64.7734 47.9885 64.7722 47.9885 64.771C47.9885 64.7698 47.9885 64.7685 47.9885 64.7673C47.9885 64.7661 47.9885 64.7649 47.9885 64.7636C47.9885 64.7624 47.9885 64.7612 47.9885 64.7599C47.9885 64.7587 47.9885 64.7575 47.9885 64.7563C47.9885 64.755 47.9885 64.7538 47.9885 64.7526C47.9885 64.7514 47.9885 64.7501 47.9885 64.7489C47.9885 64.7477 47.9885 64.7465 47.9885 64.7452C47.9885 64.744 47.9885 64.7428 47.9885 64.7416C47.9885 64.7403 47.9885 64.7391 47.9885 64.7379C47.9885 64.7367 47.9885 64.7354 47.9885 64.7342C47.9885 64.733 47.9885 64.7318 47.9885 64.7305C47.9885 64.7293 47.9885 64.7281 47.9885 64.7269C47.9885 64.7257 47.9885 64.7244 47.9885 64.7232C47.9885 64.722 47.9885 64.7208 47.9885 64.7195C47.9885 64.7183 47.9885 64.7171 47.9885 64.7159C47.9885 64.7147 47.9885 64.7134 47.9885 64.7122C47.9885 64.711 47.9885 64.7098 47.9885 64.7086C47.9885 64.7073 47.9885 64.7061 47.9885 64.7049C47.9885 64.7037 47.9885 64.7025 47.9885 64.7012C47.9885 64.7 47.9885 64.6988 47.9885 64.6976C47.9885 64.6964 47.9885 64.6951 47.9885 64.6939C47.9885 64.6927 47.9885 64.6915 47.9885 64.6903C47.9885 64.6891 47.9885 64.6878 47.9885 64.6866C47.9885 64.6854 47.9885 64.6842 47.9885 64.683C47.9885 64.6817 47.9885 64.6805 47.9885 64.6793C47.9885 64.6781 47.9885 64.6769 47.9885 64.6757C47.9885 64.6744 47.9885 64.6732 47.9885 64.672C47.9885 64.6708 47.9885 64.6696 47.9885 64.6684C47.9885 64.6671 47.9885 64.6659 47.9885 64.6647C47.9885 64.6635 47.9885 64.6623 47.9885 64.6611C47.9885 64.6599 47.9885 64.6586 47.9885 64.6574C47.9885 64.6562 47.9885 64.655 47.9885 64.6538C47.9885 64.6526 47.9885 64.6514 47.9885 64.6501C47.9885 64.6489 47.9885 64.6477 47.9885 64.6465C47.9885 64.6453 47.9885 64.6441 47.9885 64.6429C47.9885 64.6417 47.9885 64.6404 47.9885 64.6392C47.9885 64.638 47.9885 64.6368 47.9885 64.6356C47.9885 64.6344 47.9885 64.6332 47.9885 64.632C47.9885 64.6307 47.9885 64.6295 47.9885 64.6283C47.9885 64.6271 47.9885 64.6259 47.9885 64.6247C47.9885 64.6235 47.9885 64.6223 47.9885 64.6211C47.9885 64.6199 47.9885 64.6186 47.9885 64.6174C47.9885 64.6162 47.9885 64.615 47.9885 64.6138C47.9885 64.6126 47.9885 64.6114 47.9885 64.6102C47.9885 64.609 47.9885 64.6078 47.9885 64.6066C47.9885 64.6053 47.9885 64.6041 47.9885 64.6029C47.9885 64.6017 47.9885 64.6005 47.9885 64.5993C47.9885 64.5981 47.9885 64.5969 47.9885 64.5957C47.9885 64.5945 47.9885 64.5933 47.9885 64.5921C47.9885 64.5909 47.9885 64.5897 47.9885 64.5884C47.9885 64.5872 47.9885 64.586 47.9885 64.5848C47.9885 64.5836 47.9885 64.5824 47.9885 64.5812C47.9885 64.58 47.9885 64.5788 47.9885 64.5776C47.9885 64.5764 47.9885 64.5752 47.9885 64.574C47.9885 64.5728 47.9885 64.5716 47.9885 64.5704C47.9885 64.5692 47.9885 64.568 47.9885 64.5668C47.9885 64.5656 47.9885 64.5644 47.9885 64.5632C47.9885 64.562 47.9885 64.5607 47.9885 64.5595C47.9885 64.5583 47.9885 64.5571 47.9885 64.5559C47.9885 64.5547 47.9885 64.5535 47.9885 64.5523C47.9885 64.5511 47.9885 64.5499 47.9885 64.5487C47.9885 64.5475 47.9885 64.5463 47.9885 64.5451C47.9885 64.5439 47.9885 64.5427 47.9885 64.5415C47.9885 64.5403 47.9885 64.5391 47.9885 64.5379C47.9885 64.5367 47.9885 64.5355 47.9885 64.5343C47.9885 64.5331 47.9885 64.5319 47.9885 64.5307C47.9885 64.5295 47.9885 64.5283 47.9885 64.5271C47.9885 64.5259 47.9885 64.5247 47.9885 64.5235C47.9885 64.5223 47.9885 64.5211 47.9885 64.5199C47.9885 64.5187 47.9885 64.5175 47.9885 64.5163C47.9885 64.5152 47.9885 64.514 47.9885 64.5128C47.9885 64.5116 47.9885 64.5104 47.9885 64.5092C47.9885 64.508 47.9885 64.5068 47.9885 64.5056C47.9885 64.5044 47.9885 64.5032 47.9885 64.502C47.9885 64.5008 47.9885 64.4996 47.9885 64.4984C47.9885 64.4972 47.9885 64.496 47.9885 64.4948C47.9885 64.4936 47.9885 64.4924 47.9885 64.4912C47.9885 64.49 47.9885 64.4888 47.9885 64.4877C47.9885 64.4865 47.9885 64.4853 47.9885 64.4841C47.9885 64.4829 47.9885 64.4817 47.9885 64.4805C47.9885 64.4793 47.9885 64.4781 47.9885 64.4769C47.9885 64.4757 47.9885 64.4745 47.9885 64.4733C47.9885 64.4721 47.9885 64.471 47.9885 64.4698C47.9885 64.4686 47.9885 64.4674 47.9885 64.4662C47.9885 64.465 47.9885 64.4638 47.9885 64.4626C47.9885 64.4614 47.9885 64.4602 47.9885 64.459C47.9885 64.4579 47.9885 64.4567 47.9885 64.4555C47.9885 64.4543 47.9885 64.4531 47.9885 64.4519C47.9885 64.4507 47.9885 64.4495 47.9885 64.4483C47.9885 64.4471 47.9885 64.446 47.9885 64.4448C47.9885 64.4436 47.9885 64.4424 47.9885 64.4412C47.9885 64.44 47.9885 64.4388 47.9885 64.4376C47.9885 64.4365 47.9885 64.4353 47.9885 64.4341C47.9885 64.4329 47.9885 64.4317 47.9885 64.4305C47.9885 64.4293 47.9885 64.4281 47.9885 64.427C47.9885 64.4258 47.9885 64.4246 47.9885 64.4234C47.9885 64.4222 47.9885 64.421 47.9885 64.4198C47.9885 64.4187 47.9885 64.4175 47.9885 64.4163C47.9885 64.4151 47.9885 64.4139 47.9885 64.4127C47.9885 64.4115 47.9885 64.4104 47.9885 64.4092C47.9885 64.408 47.9885 64.4068 47.9885 64.4056C47.9885 64.4044 47.9885 64.4033 47.9885 64.4021C47.9885 64.4009 47.9885 64.3997 47.9885 64.3985C47.9885 64.3973 47.9885 64.3962 47.9885 64.395C47.9885 64.3938 47.9885 64.3926 47.9885 64.3914C47.9885 64.3903 47.9885 64.3891 47.9885 64.3879C47.9885 64.3867 47.9885 64.3855 47.9885 64.3843C47.9885 64.3832 47.9885 64.382 47.9885 64.3808C47.9885 64.3796 47.9885 64.3784 47.9885 64.3773C47.9885 64.3761 47.9885 64.3749 47.9885 64.3737C47.9885 64.3725 47.9885 64.3714 47.9885 64.3702C47.9885 64.369 47.9885 64.3678 47.9885 64.3666C47.9885 64.3655 47.9885 64.3643 47.9885 64.3631C47.9885 64.3619 47.9885 64.3607 47.9885 64.3596C47.9885 64.3584 47.9885 64.3572 47.9885 64.356C47.9885 64.3549 47.9885 64.3537 47.9885 64.3525C47.9885 64.3513 47.9885 64.3502 47.9885 64.349C47.9885 64.3478 47.9885 64.3466 47.9885 64.3454C47.9885 64.3443 47.9885 64.3431 47.9885 64.3419C47.9885 64.3407 47.9885 64.3396 47.9885 64.3384C47.9885 64.3372 47.9885 64.336 47.9885 64.3349C47.9885 64.3337 47.9885 64.3325 47.9885 64.3313C47.9885 64.3302 47.9885 64.329 47.9885 64.3278C47.9885 64.3266 47.9885 64.3255 47.9885 64.3243C47.9885 64.3231 47.9885 64.3219 47.9885 64.3208C47.9885 64.3196 47.9885 64.3184 47.9885 64.3173C47.9885 64.3161 47.9885 64.3149 47.9885 64.3137C47.9885 64.3126 47.9885 64.3114 47.9885 64.3102C47.9885 64.309 47.9885 64.3079 47.9885 64.3067C47.9885 64.3055 47.9885 64.3044 47.9885 64.3032C47.9885 64.302 47.9885 64.3008 47.9885 64.2997C47.9885 64.2985 47.9885 64.2973 47.9885 64.2962C47.9885 64.295 47.9885 64.2938 47.9885 64.2927C47.9885 64.2915 47.9885 64.2903 47.9885 64.2891C47.9885 64.288 47.9885 64.2868 47.9885 64.2856C47.9885 64.2845 47.9885 64.2833 47.9885 64.2821C47.9885 64.281 47.9885 64.2798 47.9885 64.2786C47.9885 64.2775 47.9885 64.2763 47.9885 64.2751C47.9885 64.274 47.9885 64.2728 47.9885 64.2716C47.9885 64.2705 47.9885 64.2693 47.9885 64.2681C47.9885 64.267 47.9885 64.2658 47.9885 64.2646C47.9885 64.2635 47.9885 64.2623 47.9885 64.2611C47.9885 64.26 47.9885 64.2588 47.9885 64.2576C47.9885 64.2565 47.9885 64.2553 47.9885 64.2541C47.9885 64.253 47.9885 64.2518 47.9885 64.2506C47.9885 64.2495 47.9885 64.2483 47.9885 64.2471C47.9885 64.246 47.9885 64.2448 47.9885 64.2436C47.9885 64.2425 47.9885 64.2413 47.9885 64.2402C47.9885 64.239 47.9885 64.2378 47.9885 64.2367C47.9885 64.2355 47.9885 64.2343 47.9885 64.2332C47.9885 64.232 47.9885 64.2309 47.9885 64.2297C47.9885 64.2285 47.9885 64.2274 47.9885 64.2262C47.9885 64.225 47.9885 64.2239 47.9885 64.2227C47.9885 64.2216 47.9885 64.2204 47.9885 64.2192C47.9885 64.2181 47.9885 64.2169 47.9885 64.2158C47.9885 64.2146 47.9885 64.2134 47.9885 64.2123C47.9885 64.2111 47.9885 64.21 47.9885 64.2088C47.9885 64.2076 47.9885 64.2065 47.9885 64.2053C47.9885 64.2042 47.9885 64.203 47.9885 64.2018C47.9885 64.2007 47.9885 64.1995 47.9885 64.1984C47.9885 64.1972 47.9885 64.1961 47.9885 64.1949C47.9885 64.1937 47.9885 64.1926 47.9885 64.1914C47.9885 64.1903 47.9885 64.1891 47.9885 64.188C47.9885 64.1868 47.9885 64.1856 47.9885 64.1845C47.9885 64.1833 47.9885 64.1822 47.9885 64.181C47.9885 64.1799 47.9885 64.1787 47.9885 64.1776C47.9885 64.1764 47.9885 64.1752 47.9885 64.1741C47.9885 64.1729 47.9885 64.1718 47.9885 64.1706C47.9885 64.1695 47.9885 64.1683 47.9885 64.1672C47.9885 64.166 47.9885 64.1649 47.9885 64.1637C47.9885 64.1625 47.9885 64.1614 47.9885 64.1602C47.9885 64.1591 47.9885 64.1579 47.9885 64.1568C47.9885 64.1556 47.9885 64.1545 47.9885 64.1533C47.9885 64.1522 47.9885 64.151 47.9885 64.1499C47.9885 64.1487 47.9885 64.1476 47.9885 64.1464C47.9885 64.1453 47.9885 64.1441 47.9885 64.143C47.9885 64.1418 47.9885 64.1407 47.9885 64.1395C47.9885 64.1384 47.9885 64.1372 47.9885 64.136C47.9885 64.1349 47.9885 64.1337 47.9885 64.1326C47.9885 64.1315 47.9885 64.1303 47.9885 64.1292C47.9885 64.128 47.9885 64.1269 47.9885 64.1257C47.9885 64.1246 47.9885 64.1234 47.9885 64.1223C47.9885 64.1211 47.9885 64.12 47.9885 64.1188C47.9885 64.1177 47.9885 64.1165 47.9885 64.1154C47.9885 64.1142 47.9885 64.1131 47.9885 64.1119C47.9885 64.1108 47.9885 64.1096 47.9885 64.1085C47.9885 64.1073 47.9885 64.1062 47.9885 64.105C47.9885 64.1039 47.9885 64.1028 47.9885 64.1016C47.9885 64.1005 47.9885 64.0993 47.9885 64.0982C47.9885 64.097 47.9885 64.0959 47.9885 64.0947C47.9885 64.0936 47.9885 64.0924 47.9885 64.0913C47.9885 64.0902 47.9885 64.089 47.9885 64.0879C47.9885 64.0867 47.9885 64.0856 47.9885 64.0844C47.9885 64.0833 47.9885 64.0821 47.9885 64.081C47.9885 64.0799 47.9885 64.0787 47.9885 64.0776C47.9885 64.0764 47.9885 64.0753 47.9885 64.0741C47.9885 64.073 47.9885 64.0719 47.9885 64.0707C47.9885 64.0696 47.9885 64.0684 47.9885 64.0673C47.9885 64.0662 47.9885 64.065 47.9885 64.0639C47.9885 64.0627 47.9885 64.0616 47.9885 64.0605C47.9885 64.0593 47.9885 64.0582 47.9885 64.057C47.9885 64.0559 47.9885 64.0548 47.9885 64.0536C47.9885 64.0525 47.9885 64.0513 47.9885 64.0502C47.9885 64.0491 47.9885 64.0479 47.9885 64.0468C47.9885 64.0456 47.9885 64.0445 47.9885 64.0434C47.9885 64.0422 47.9885 64.0411 47.9885 64.0399C47.9885 64.0388 47.9885 64.0377 47.9885 64.0365C47.9885 64.0354 47.9885 64.0343 47.9885 64.0331C47.9885 64.032 47.9885 64.0308 47.9885 64.0297C47.9885 64.0286 47.9885 64.0274 47.9885 64.0263C47.9885 64.0252 47.9885 64.024 47.9885 64.0229C47.9885 64.0218 47.9885 64.0206 47.9885 64.0195C47.9885 64.0183 47.9885 64.0172 47.9885 64.0161C47.9885 64.0149 47.9885 64.0138 47.9885 64.0127C47.9885 64.0115 47.9885 64.0104 47.9885 64.0093C47.9885 64.0081 47.9885 64.007 47.9885 64.0059C47.9885 64.0047 47.9885 64.0036 47.9885 64.0025C47.9885 64.0013 47.9885 64.0002 47.9885 63.9991C47.9885 63.9979 47.9885 63.9968 47.9885 63.9957C47.9885 63.9945 47.9885 63.9934 47.9885 63.9923C47.9885 63.9911 47.9885 63.99 47.9885 63.9889C47.9885 63.9877 47.9885 63.9866 47.9885 63.9855C47.9885 63.9844 47.9885 63.9832 47.9885 63.9821C47.9885 63.981 47.9885 63.9798 47.9885 63.9787C47.9885 63.9776 47.9885 63.9764 47.9885 63.9753C47.9885 63.9742 47.9885 63.9731 47.9885 63.9719C47.9885 63.9708 47.9885 63.9697 47.9885 63.9685C47.9885 63.9674 47.9885 63.9663 47.9885 63.9652C47.9885 63.964 47.9885 63.9629 47.9885 63.9618C47.9885 63.9606 47.9885 63.9595 47.9885 63.9584C47.9885 63.9573 47.9885 63.9561 47.9885 63.955C47.9885 63.9539 47.9885 63.9527 47.9885 63.9516C47.9885 63.9505 47.9885 63.9494 47.9885 63.9482C47.9885 63.9471 47.9885 63.946 47.9885 63.9449C47.9885 63.9437 47.9885 63.9426 47.9885 63.9415C47.9885 63.9404 47.9885 63.9392 47.9885 63.9381C47.9885 63.937 47.9885 63.9359 47.9885 63.9347C47.9885 63.9336 47.9885 63.9325 47.9885 63.9314C47.9885 63.9302 47.9885 63.9291 47.9885 63.928C47.9885 63.9269 47.9885 63.9257 47.9885 63.9246C47.9885 63.9235 47.9885 63.9224 47.9885 63.9213C47.9885 63.9201 47.9885 63.919 47.9885 63.9179C47.9885 63.9168 47.9885 63.9156 47.9885 63.9145C47.9885 63.9134 47.9885 63.9123 47.9885 63.9112C47.9885 63.91 47.9885 63.9089 47.9885 63.9078C47.9885 63.9067 47.9885 63.9056 47.9885 63.9044C47.9885 63.9033 47.9885 63.9022 47.9885 63.9011C47.9885 63.8999 47.9885 63.8988 47.9885 63.8977C47.9885 63.8966 47.9885 63.8955 47.9885 63.8944C47.9885 63.8932 47.9885 63.8921 47.9885 63.891C47.9885 63.8899 47.9885 63.8888 47.9885 63.8876C47.9885 63.8865 47.9885 63.8854 47.9885 63.8843C47.9885 63.8832 47.9885 63.882 47.9885 63.8809C47.9885 63.8798 47.9885 63.8787 47.9885 63.8776C47.9885 63.8765 47.9885 63.8753 47.9885 63.8742C47.9885 63.8731 47.9885 63.872 47.9885 63.8709H44.9885ZM44.9885 65.7568C44.9885 66.3417 44.9619 67.0194 44.9066 67.7931L47.899 68.0068C47.958 67.1803 47.9885 66.4293 47.9885 65.7568H44.9885ZM46.4028 66.3999H14.4274V69.3999H46.4028V66.3999ZM12.9313 68.0084C13.2368 72.2235 14.632 75.6314 17.2816 78.016L19.2885 75.7861C17.3661 74.0559 16.1896 71.4631 15.9235 67.7915L12.9313 68.0084ZM17.2973 78.0299C19.8615 80.2736 22.9001 81.4014 26.3432 81.4014V78.4014C23.614 78.4014 21.2806 77.529 19.2728 75.7722L17.2973 78.0299ZM26.3432 81.4014C29.2122 81.4014 31.6678 80.8239 33.5501 79.4994L31.8236 77.046C30.6198 77.8931 28.8462 78.4014 26.3432 78.4014V81.4014ZM33.5587 79.4933C35.413 78.1688 36.7608 76.3809 37.6026 74.1792L34.8005 73.1078C34.1564 74.7923 33.1611 76.0905 31.815 77.0521L33.5587 79.4933ZM36.2015 75.1435H45.3741V72.1435H36.2015V75.1435ZM43.9201 73.2749C42.9694 77.0251 40.997 80.1882 37.9669 82.793L39.9226 85.068C43.4076 82.0721 45.7215 78.3772 46.8281 74.0121L43.9201 73.2749ZM37.9785 82.7831C35.0417 85.2563 31.2335 86.5453 26.4289 86.5453V89.5453C31.797 89.5453 36.3327 88.0912 39.911 85.0779L37.9785 82.7831ZM26.4289 49.855C23.2957 49.855 20.4813 50.8232 18.0414 52.7495L19.9003 55.1041C21.8038 53.6013 23.9614 52.855 26.4289 52.855V49.855ZM18.0608 52.7344C15.5641 54.6398 13.9933 57.3189 13.3016 60.6514L16.239 61.2611C16.8047 58.5357 18.0342 56.5285 19.8809 55.1192L18.0608 52.7344ZM14.7703 62.4562H37.4017V59.4562H14.7703V62.4562ZM38.8969 60.8366C38.6399 57.6235 37.366 54.9383 35.053 52.8896L33.0639 55.1354C34.7514 56.63 35.7063 58.574 35.9065 61.0758L38.8969 60.8366ZM35.053 52.8896C32.7363 50.8377 29.8211 49.855 26.4289 49.855V52.855C29.209 52.855 31.38 53.644 33.0639 55.1354L35.053 52.8896ZM71.8296 87.0166L70.4534 87.6132L70.845 88.5166H71.8296V87.0166ZM53.3988 44.497V42.997H51.1137L52.0225 45.0936L53.3988 44.497ZM63.6858 44.497L65.0716 43.9232L64.6882 42.997H63.6858V44.497ZM77.316 77.4154L75.9301 77.9893L77.3117 81.3258L78.7006 77.9923L77.316 77.4154ZM91.032 44.497V42.997H90.032L89.6474 43.9201L91.032 44.497ZM101.233 44.497L102.609 45.0959L103.523 42.997H101.233V44.497ZM82.7167 87.0166V88.5166H83.6995L84.0919 87.6155L82.7167 87.0166ZM73.2059 86.42L54.775 43.9005L52.0225 45.0936L70.4534 87.6132L73.2059 86.42ZM53.3988 45.997H63.6858V42.997H53.3988V45.997ZM62.2999 45.0709L75.9301 77.9893L78.7019 76.8416L65.0716 43.9232L62.2999 45.0709ZM78.7006 77.9923L92.4166 45.074L89.6474 43.9201L75.9314 76.8385L78.7006 77.9923ZM91.032 45.997H101.233V42.997H91.032V45.997ZM99.858 43.8981L81.3414 86.4177L84.0919 87.6155L102.609 45.0959L99.858 43.8981ZM82.7167 85.5166H71.8296V88.5166H82.7167V85.5166ZM117.83 85.3021L117.086 86.6045L117.086 86.6045L117.83 85.3021ZM110.287 77.5869L108.968 78.302L108.973 78.3115L110.287 77.5869ZM110.287 54.0125L111.6 54.7371L111.605 54.7277L110.287 54.0125ZM117.83 46.2115L118.575 47.5139L118.575 47.5139L117.83 46.2115ZM139.69 46.2115L138.936 47.5081L138.946 47.5139L139.69 46.2115ZM147.148 54.0125L145.82 54.7102L145.828 54.7237L145.835 54.7371L147.148 54.0125ZM147.148 77.5869L148.462 78.3115L148.467 78.302L147.148 77.5869ZM139.605 85.3021L138.86 83.9997L138.85 84.0056L139.605 85.3021ZM134.718 77.9298L134.014 76.6051L134.014 76.6051L134.718 77.9298ZM139.09 73.4721L137.779 72.7436L137.775 72.75L137.772 72.7564L139.09 73.4721ZM139.09 58.0416L137.772 58.7572L137.78 58.7716L137.788 58.7858L139.09 58.0416ZM134.718 53.5839L133.997 54.8991L134.006 54.9039L134.014 54.9086L134.718 53.5839ZM122.802 53.5839L122.099 52.2592L122.099 52.2592L122.802 53.5839ZM118.345 58.0416L117.042 57.2974L117.034 57.3116L117.026 57.3259L118.345 58.0416ZM120.231 76.1295L119.197 77.2164L119.21 77.2293L119.224 77.2418L120.231 76.1295ZM128.717 86.5453C124.894 86.5453 121.526 85.6863 118.575 83.9997L117.086 86.6045C120.536 88.5755 124.426 89.5453 128.717 89.5453V86.5453ZM118.575 83.9997C115.62 82.3114 113.299 79.9426 111.6 76.8622L108.973 78.3115C110.931 81.8605 113.64 84.6352 117.086 86.6045L118.575 83.9997ZM111.605 76.8717C109.915 73.7553 109.043 70.0662 109.043 65.7568H106.043C106.043 70.4772 107.001 74.6747 108.968 78.302L111.605 76.8717ZM109.043 65.7568C109.043 61.4466 109.915 57.7908 111.6 54.7371L108.973 53.2879C107 56.8636 106.043 61.0373 106.043 65.7568H109.043ZM111.605 54.7277C113.307 51.5907 115.627 49.1984 118.575 47.5139L117.086 44.9092C113.633 46.8823 110.924 49.6906 108.968 53.2974L111.605 54.7277ZM118.575 47.5139C121.523 45.8292 124.918 44.9684 128.803 44.9684V41.9684C124.458 41.9684 120.539 42.9363 117.086 44.9092L118.575 47.5139ZM128.803 44.9684C132.689 44.9684 136.051 45.8293 138.936 47.5081L140.445 44.915C137.043 42.9362 133.147 41.9684 128.803 41.9684V44.9684ZM138.946 47.5139C141.89 49.196 144.177 51.5825 145.82 54.7102L148.476 53.3148C146.576 49.6988 143.892 46.8847 140.434 44.9092L138.946 47.5139ZM145.835 54.7371C147.52 57.7908 148.392 61.4466 148.392 65.7568H151.392C151.392 61.0373 150.434 56.8636 148.462 53.2879L145.835 54.7371ZM148.392 65.7568C148.392 70.0662 147.52 73.7553 145.83 76.8717L148.467 78.302C150.434 74.6747 151.392 70.4772 151.392 65.7568H148.392ZM145.835 76.8622C144.135 79.9426 141.815 82.3114 138.86 83.9997L140.349 86.6045C143.795 84.6352 146.504 81.8605 148.462 78.3115L145.835 76.8622ZM138.85 84.0056C135.965 85.6843 132.603 86.5453 128.717 86.5453V89.5453C133.062 89.5453 136.958 88.5775 140.359 86.5986L138.85 84.0056ZM128.717 80.8871C131.122 80.8871 133.366 80.3468 135.422 79.2544L134.014 76.6051C132.413 77.4559 130.656 77.8871 128.717 77.8871V80.8871ZM135.422 79.2544C137.537 78.131 139.197 76.4202 140.408 74.1877L137.772 72.7564C136.812 74.5244 135.557 75.7854 134.014 76.6051L135.422 79.2544ZM140.401 74.2005C141.701 71.8616 142.305 69.0209 142.305 65.7568H139.305C139.305 68.6649 138.766 70.9678 137.779 72.7436L140.401 74.2005ZM142.305 65.7568C142.305 62.4437 141.704 59.5921 140.393 57.2974L137.788 58.7858C138.763 60.4916 139.305 62.7835 139.305 65.7568H142.305ZM140.408 57.3259C139.197 55.0934 137.537 53.3826 135.422 52.2592L134.014 54.9086C135.557 55.7283 136.812 56.9892 137.772 58.7572L140.408 57.3259ZM135.439 52.2687C133.43 51.1669 131.208 50.6266 128.803 50.6266V53.6266C130.742 53.6266 132.463 54.0578 133.997 54.8991L135.439 52.2687ZM128.803 50.6266C126.398 50.6266 124.155 51.1669 122.099 52.2592L123.506 54.9086C125.108 54.0578 126.865 53.6266 128.803 53.6266V50.6266ZM122.099 52.2592C119.992 53.3784 118.31 55.0795 117.042 57.2974L119.647 58.7858C120.666 57.0031 121.955 55.7324 123.506 54.9086L122.099 52.2592ZM117.026 57.3259C115.785 59.6136 115.216 62.4541 115.216 65.7568H118.216C118.216 62.7731 118.733 60.47 119.663 58.7572L117.026 57.3259ZM115.216 65.7568C115.216 70.6677 116.444 74.5975 119.197 77.2164L121.265 75.0427C119.331 73.2039 118.216 70.2186 118.216 65.7568H115.216ZM119.224 77.2418C121.902 79.6648 125.091 80.8871 128.717 80.8871V77.8871C125.829 77.8871 123.36 76.9377 121.237 75.0172L119.224 77.2418ZM160.231 87.0166H158.731V88.5166H160.231V87.0166ZM160.231 79.1299V77.6299H158.731V79.1299H160.231ZM174.461 79.1299V80.6299H175.961V79.1299H174.461ZM161.431 33.1814H159.931V34.6814H161.431V33.1814ZM161.431 25.2947V23.7947H159.931V25.2947H161.431ZM180.89 27.9521L179.813 28.9953L179.83 29.0129L179.847 29.03L180.89 27.9521ZM183.548 79.1299H182.048V80.6299H183.548V79.1299ZM197.864 79.1299H199.364V77.6299H197.864V79.1299ZM197.864 87.0166V88.5166H199.364V87.0166H197.864ZM161.731 87.0166V79.1299H158.731V87.0166H161.731ZM160.231 80.6299H174.461V77.6299H160.231V80.6299ZM175.961 79.1299V36.0103H172.961V79.1299H175.961ZM175.961 36.0103C175.961 34.8475 175.68 33.6977 174.852 32.8444C174.016 31.9824 172.875 31.6814 171.718 31.6814V34.6814C172.389 34.6814 172.62 34.8518 172.698 34.9328C172.785 35.0224 172.961 35.2872 172.961 36.0103H175.961ZM171.718 31.6814H161.431V34.6814H171.718V31.6814ZM162.931 33.1814V25.2947H159.931V33.1814H162.931ZM161.431 26.7947H173.347V23.7947H161.431V26.7947ZM173.347 26.7947C176.4 26.7947 178.468 27.6055 179.813 28.9953L181.968 26.909C179.884 24.7555 176.923 23.7947 173.347 23.7947V26.7947ZM179.847 29.03C181.237 30.375 182.048 32.4427 182.048 35.4959H185.048C185.048 31.9198 184.087 28.9583 181.934 26.8742L179.847 29.03ZM182.048 35.4959V79.1299H185.048V35.4959H182.048ZM183.548 80.6299H197.864V77.6299H183.548V80.6299ZM196.364 79.1299V87.0166H199.364V79.1299H196.364ZM197.864 85.5166H160.231V88.5166H197.864V85.5166Z" fill="#EFF5FF" mask="url(#path-1-outside-1_198_275)"/>
<mask id="path-3-outside-2_198_275" maskUnits="userSpaceOnUse" x="206.672" y="36" width="87" height="50" fill="black">
<rect fill="white" x="206.672" y="36" width="87" height="50"/>
<path d="M222.729 56.1344C231.503 56.1344 235.89 57.2538 235.89 59.4928C235.89 61.7317 231.503 62.8512 222.729 62.8512C213.954 62.8512 209.567 61.7317 209.567 59.4928C209.567 57.2538 213.954 56.1344 222.729 56.1344ZM289.606 84C286.641 84 283.071 81.1257 278.896 75.3771C274.66 69.6285 270.485 69.6285 266.37 75.3771C262.195 81.1257 258.655 84 255.75 84C252.785 84 254.147 80.1575 259.835 72.4725C265.462 64.848 265.462 57.2841 259.835 49.7806C254.147 42.3377 252.785 38.6162 255.75 38.6162C258.655 38.6162 262.195 41.3393 266.37 46.7853C270.545 52.2314 274.569 52.2314 278.442 46.7853C282.375 41.3393 285.794 38.6162 288.699 38.6162C291.543 38.6162 290.302 42.2772 284.977 49.5991C279.592 57.042 279.743 64.606 285.431 72.291C291.18 80.097 292.572 84 289.606 84Z"/>
</mask>
<path d="M222.729 56.1344C231.503 56.1344 235.89 57.2538 235.89 59.4928C235.89 61.7317 231.503 62.8512 222.729 62.8512C213.954 62.8512 209.567 61.7317 209.567 59.4928C209.567 57.2538 213.954 56.1344 222.729 56.1344ZM289.606 84C286.641 84 283.071 81.1257 278.896 75.3771C274.66 69.6285 270.485 69.6285 266.37 75.3771C262.195 81.1257 258.655 84 255.75 84C252.785 84 254.147 80.1575 259.835 72.4725C265.462 64.848 265.462 57.2841 259.835 49.7806C254.147 42.3377 252.785 38.6162 255.75 38.6162C258.655 38.6162 262.195 41.3393 266.37 46.7853C270.545 52.2314 274.569 52.2314 278.442 46.7853C282.375 41.3393 285.794 38.6162 288.699 38.6162C291.543 38.6162 290.302 42.2772 284.977 49.5991C279.592 57.042 279.743 64.606 285.431 72.291C291.18 80.097 292.572 84 289.606 84Z" fill="#EFF5FF"/>
<path d="M222.729 58.1344C227.074 58.1344 230.161 58.4157 232.105 58.9119C233.086 59.1623 233.611 59.4278 233.852 59.6116C234.034 59.7511 233.89 59.7011 233.89 59.4928H237.89C237.89 58.1649 237.197 57.1354 236.283 56.4354C235.426 55.7796 234.306 55.3453 233.094 55.0361C230.651 54.4127 227.158 54.1344 222.729 54.1344V58.1344ZM233.89 59.4928C233.89 59.2844 234.034 59.2344 233.852 59.374C233.611 59.5578 233.086 59.8232 232.105 60.0737C230.161 60.5698 227.074 60.8512 222.729 60.8512V64.8512C227.158 64.8512 230.651 64.5728 233.094 63.9495C234.306 63.6402 235.426 63.206 236.283 62.5502C237.197 61.8501 237.89 60.8206 237.89 59.4928H233.89ZM222.729 60.8512C218.383 60.8512 215.296 60.5698 213.352 60.0737C212.371 59.8232 211.846 59.5578 211.606 59.374C211.423 59.2344 211.567 59.2844 211.567 59.4928H207.567C207.567 60.8206 208.26 61.8501 209.174 62.5502C210.031 63.206 211.151 63.6402 212.363 63.9495C214.806 64.5728 218.299 64.8512 222.729 64.8512V60.8512ZM211.567 59.4928C211.567 59.7011 211.423 59.7511 211.606 59.6116C211.846 59.4278 212.371 59.1623 213.352 58.9119C215.296 58.4157 218.383 58.1344 222.729 58.1344V54.1344C218.299 54.1344 214.806 54.4127 212.363 55.0361C211.151 55.3453 210.031 55.7796 209.174 56.4354C208.26 57.1354 207.567 58.1649 207.567 59.4928H211.567ZM278.896 75.3771L280.514 74.2017L280.506 74.1907L278.896 75.3771ZM266.37 75.3771L267.988 76.5524L267.996 76.5412L266.37 75.3771ZM259.835 72.4725L261.442 73.6624L261.444 73.6602L259.835 72.4725ZM259.835 49.7806L261.435 48.5806L261.429 48.5734L261.424 48.5662L259.835 49.7806ZM266.37 46.7853L267.957 45.5684L267.957 45.5684L266.37 46.7853ZM278.442 46.7853L276.821 45.6143L276.816 45.6203L276.812 45.6263L278.442 46.7853ZM284.977 49.5991L283.36 48.4228L283.357 48.4267L284.977 49.5991ZM285.431 72.291L287.042 71.105L287.039 71.1011L285.431 72.291ZM289.606 82C288.77 82 287.573 81.5854 285.959 80.2864C284.366 79.0033 282.548 77.0023 280.514 74.2018L277.278 76.5524C279.419 79.5005 281.474 81.8109 283.451 83.4021C285.408 84.9775 287.477 86 289.606 86V82ZM280.506 74.1907C278.274 71.1617 275.652 69.0656 272.588 69.0656C269.512 69.0656 266.918 71.1748 264.744 74.213L267.996 76.5412C269.936 73.8308 271.488 73.0656 272.588 73.0656C273.699 73.0656 275.282 73.8438 277.286 76.5635L280.506 74.1907ZM264.752 74.2018C262.716 77.0043 260.905 79.0073 259.323 80.2916C257.718 81.5948 256.546 82 255.75 82V86C257.859 86 259.909 84.968 261.844 83.3969C263.802 81.8069 265.848 79.4985 267.988 76.5524L264.752 74.2018ZM255.75 82C255.412 82 255.943 81.9322 256.183 82.5093C256.288 82.7609 256.121 82.6666 256.433 81.7861C257.004 80.1734 258.601 77.5017 261.442 73.6624L258.227 71.2827C255.381 75.1283 253.452 78.2203 252.662 80.4502C252.294 81.4909 251.986 82.8375 252.492 84.0498C253.134 85.5875 254.605 86 255.75 86V82ZM261.444 73.6602C264.447 69.5921 266.055 65.3885 266.055 61.0812C266.055 56.7715 264.445 52.594 261.435 48.5806L258.235 50.9806C260.852 54.4707 262.055 57.8269 262.055 61.0812C262.055 64.3379 260.85 67.7285 258.226 71.2848L261.444 73.6602ZM261.424 48.5662C258.581 44.8463 256.992 42.2673 256.426 40.7202C256.115 39.8704 256.298 39.8189 256.174 40.1054C255.918 40.7001 255.379 40.6162 255.75 40.6162V36.6162C254.639 36.6162 253.158 36.9976 252.501 38.5226C251.977 39.7395 252.299 41.0835 252.669 42.0945C253.465 44.2689 255.4 47.272 258.246 50.9951L261.424 48.5662ZM255.75 40.6162C256.58 40.6162 257.766 41.0147 259.364 42.2437C260.943 43.4583 262.751 45.3519 264.783 48.0022L267.957 45.5684C265.814 42.7726 263.764 40.5817 261.803 39.0733C259.861 37.5793 257.825 36.6162 255.75 36.6162V40.6162ZM264.783 48.0022C266.988 50.8787 269.555 52.8698 272.519 52.8698C275.513 52.8698 278.009 50.8458 280.072 47.9444L276.812 45.6263C275.003 48.1709 273.55 48.8698 272.519 48.8698C271.46 48.8698 269.927 48.138 267.957 45.5684L264.783 48.0022ZM280.063 47.9563C281.974 45.3108 283.69 43.4275 285.202 42.2229C286.729 41.0073 287.878 40.6162 288.699 40.6162V36.6162C286.615 36.6162 284.603 37.5867 282.71 39.0941C280.804 40.6126 278.843 42.8137 276.821 45.6143L280.063 47.9563ZM288.699 40.6162C289.008 40.6162 288.485 40.6772 288.234 40.1051C288.116 39.8359 288.288 39.8928 288.007 40.7201C287.494 42.2349 286.02 44.7652 283.36 48.4228L286.595 50.7754C289.26 47.1111 291.068 44.15 291.796 42.0038C292.136 41.0006 292.417 39.6847 291.898 38.5002C291.246 37.0129 289.811 36.6162 288.699 36.6162V40.6162ZM283.357 48.4267C280.465 52.4229 278.966 56.591 279.052 60.8943C279.138 65.1887 280.798 69.3933 283.824 73.4808L287.039 71.1011C284.376 67.5036 283.117 64.0838 283.051 60.8143C282.986 57.5536 284.104 54.2182 286.598 50.7715L283.357 48.4267ZM283.821 73.477C286.692 77.3763 288.315 80.0964 288.903 81.7445C289.223 82.6437 289.062 82.7588 289.158 82.5204C289.392 81.9405 289.929 82 289.606 82V86C290.766 86 292.241 85.5717 292.868 84.0159C293.358 82.8018 293.046 81.4533 292.67 80.401C291.866 78.146 289.919 75.0117 287.042 71.105L283.821 73.477Z" fill="#EFF5FF" mask="url(#path-3-outside-2_198_275)"/>
</svg>
