<?xml version="1.0" encoding="UTF-8" standalone="no"?><svg width="18" height="18" viewBox="0 0 18 18" fill="none" xmlns="http://www.w3.org/2000/svg">
<path d="M9.68739 8.75C9.68739 8.99864 9.58862 9.2371 9.4128 9.41291C9.23699 9.58873 8.99853 9.6875 8.74989 9.6875C8.50125 9.6875 8.26279 9.58873 8.08698 9.41291C7.91116 9.2371 7.81239 8.99864 7.81239 8.75C7.81239 8.50136 7.91116 8.2629 8.08698 8.08709C8.26279 7.91127 8.50125 7.8125 8.74989 7.8125C8.99853 7.8125 9.23699 7.91127 9.4128 8.08709C9.58862 8.2629 9.68739 8.50136 9.68739 8.75ZM5.78114 8.75C5.78114 8.99864 5.68237 9.2371 5.50655 9.41291C5.33074 9.58873 5.09228 9.6875 4.84364 9.6875C4.595 9.6875 4.35654 9.58873 4.18073 9.41291C4.00491 9.2371 3.90614 8.99864 3.90614 8.75C3.90614 8.50136 4.00491 8.2629 4.18073 8.08709C4.35654 7.91127 4.595 7.8125 4.84364 7.8125C5.09228 7.8125 5.33074 7.91127 5.50655 8.08709C5.68237 8.2629 5.78114 8.50136 5.78114 8.75ZM13.5936 8.75C13.5936 8.99864 13.4949 9.2371 13.3191 9.41291C13.1432 9.58873 12.9048 9.6875 12.6561 9.6875C12.4075 9.6875 12.169 9.58873 11.9932 9.41291C11.8174 9.2371 11.7186 8.99864 11.7186 8.75C11.7186 8.50136 11.8174 8.2629 11.9932 8.08709C12.169 7.91127 12.4075 7.8125 12.6561 7.8125C12.9048 7.8125 13.1432 7.91127 13.3191 8.08709C13.4949 8.2629 13.5936 8.50136 13.5936 8.75ZM0.679578 5.35937C1.12098 4.31055 1.7538 3.36914 2.56044 2.56055C3.36145 1.75665 4.31234 1.11764 5.35927 0.679688C6.43348 0.228516 7.57411 0 8.74989 0H8.78895C9.97255 0.00585938 11.119 0.240234 12.1972 0.701172C13.2351 1.14362 14.1771 1.78376 14.9706 2.58594C15.7694 3.39258 16.3964 4.33008 16.83 5.375C17.2792 6.45703 17.5057 7.60742 17.4999 8.79102C17.4933 10.1474 17.1724 11.4838 16.5624 12.6953V15.6641C16.5624 15.9023 16.4677 16.1309 16.2992 16.2994C16.1308 16.4678 15.9022 16.5625 15.664 16.5625H12.6932C11.4817 17.1725 10.1453 17.4934 8.78895 17.5H8.74794C7.57802 17.5 6.44325 17.2734 5.37489 16.8301C4.33324 16.3974 3.3859 15.7658 2.58583 14.9707C1.77919 14.1719 1.14442 13.2383 0.701063 12.1973C0.240126 11.1191 0.00575018 9.97266 -0.000109196 8.78906C-0.00596857 7.59961 0.2245 6.44531 0.679578 5.35937ZM3.63075 13.9141C4.99989 15.2695 6.8163 16.0156 8.74989 16.0156H8.78309C9.96083 16.0098 11.1307 15.7168 12.164 15.166L12.328 15.0781H15.078V12.3281L15.1659 12.1641C15.7167 11.1309 16.0097 9.96094 16.0155 8.7832C16.0233 6.83594 15.2792 5.00781 13.914 3.63086C12.5507 2.25391 10.7284 1.49219 8.78114 1.48438H8.74794C7.77137 1.48438 6.82411 1.67383 5.93153 2.04883C5.06044 2.41406 4.27919 2.93945 3.60731 3.61133C2.93739 4.28125 2.41005 5.06445 2.04481 5.93555C1.66591 6.83789 1.47645 7.79492 1.48036 8.7832C1.49208 10.7285 2.25575 12.5508 3.63075 13.9141Z" fill="#5C94FF"/>
</svg>
