<?xml version="1.0" encoding="utf-8"?>
<!-- Generator: Adobe Illustrator 28.2.0, SVG Export Plug-In . SVG Version: 6.00 Build 0)  -->
<svg version="1.1" id="Capa_1" xmlns="http://www.w3.org/2000/svg" xmlns:xlink="http://www.w3.org/1999/xlink" x="0px" y="0px"
	 viewBox="0 0 298 115" style="enable-background:new 0 0 298 115;" xml:space="preserve">
<style type="text/css">
	.st0{fill:#FFFFFF;}
</style>
<g>
	<path class="st0" d="M148.5,53.3C148.5,53.3,148.5,53.3,148.5,53.3L148.5,53.3c-1.9-3.6-4.6-6.4-8-8.4l0,0
		c-10.4-6-25.9-2.8-31.5,8.4l0,0c0,0,0,0,0,0c0,0,0,0,0,0l0,0c-3.9,6.9-3.9,18.1,0,25l0,0l0,0c5.7,11,21,14.3,31.4,8.3l0,0
		c0,0,0,0,0,0c0,0,0,0,0,0l0,0c3.4-2,6.1-4.7,8.1-8.3l0,0l0,0C152.4,71.4,152.4,60.2,148.5,53.3L148.5,53.3z M137.8,72.7L137.8,72.7
		L137.8,72.7c-3.1,6.1-11.8,6.7-16.5,2.3c-3.4-2.6-4-12.3-1.6-16.3c2.7-5.1,9.6-6.5,14.4-3.9l0,0l0,0c1.5,0.8,2.8,2.1,3.8,3.8l0,0
		C139.8,61.9,139.8,69.5,137.8,72.7z"/>
	<path class="st0" d="M91,43h-1l-0.4,0.9L77.3,73.5L65.1,43.9L64.7,43c-2.4,0-11.3,0-13.6,0l0.9,2.1l18.4,42.5l0.4,0.9
		c1.3,0,11.6,0,12.9,0l0.4-0.9l0,0l18.5-42.5l0.9-2.1C102.1,43,92.7,43,91,43z"/>
	<path class="st0" d="M185,77.6V35.5c0-3.6-1-6.5-3.1-8.6l0,0c0,0,0,0,0,0c0,0,0,0,0,0l0,0c-2.1-2.1-5-3.1-8.6-3.1
		c-0.7,0-13.2,0-13.4,0c0,2.1,0,8.8,0,10.9c0.5,0,10.9,0,11.8,0c0.7,0,0.9,0.2,1,0.3c0.1,0.1,0.3,0.4,0.3,1.1v41.6
		c-0.9,0-13.7,0-14.2,0c0,2.1,0,8.8,0,10.9c0.8,0,39.8,0,40.6,0c0-2.1,0-8.8,0-10.9C198.9,77.6,185.9,77.6,185,77.6z"/>
	<path class="st0" d="M45.3,53C45.3,53,45.3,53,45.3,53L45.3,53c-1.7-3.3-4.2-6-7.4-7.9l0,0c0,0,0,0,0,0c0,0,0,0,0,0l0,0
		c-6.4-4.2-16.7-4-23.2,0l0,0C0.3,53.3,0.4,78.3,14.8,86.6l0,0c7.2,4.3,18.9,4,25.1-1.5c0,0,0,0,0,0c4-3.4,6.3-7.9,7.4-12.9
		c-2.1,0-10,0-12.1,0c-1.4,4.2-3.9,6.3-8.8,6.3c-5.3,0-9.4-3.4-10.2-9h30.3h1.4c0.1-1.3,0.2-2.8,0.2-4c0-0.2,0-0.4,0-0.6
		C48.1,60.6,47.3,56.5,45.3,53L45.3,53z M18.3,76.9L18.3,76.9L18.3,76.9L18.3,76.9z M16.8,59.5c0.7-1.8,1.7-3.3,3.1-4.4l0,0
		c5-4.2,14.3-2.4,15.7,4.4H16.8z"/>
	<path class="st0" d="M292.7,80.4c-0.8-2.3-2.8-5.4-5.6-9.3l0,0c-5.1-7.1-5.4-13.2-0.4-20.3l0,0c2.9-4.3,6.5-8.9,5.3-12.3
		c-0.7-1.5-2.1-1.9-3.2-1.9c-5.3,0.4-8.4,4.5-11.9,9l0,0l0,0l0,0c-3.3,4.5-5.3,4.3-8.9-0.1c-2.1-2.8-4.2-5-6.2-6.5
		c-2.6-2-7.4-4.1-9.3-0.6c-1.3,3.5,2.6,8.1,5.7,12.5l0,0c5.2,7.1,5.1,13.2,0,20.3l0,0c-3.1,4.5-7,9.2-5.7,12.8
		c1.9,3.7,6.8,1.5,9.4-0.7c2-1.6,4-3.9,6.2-6.9c3.6-4.7,5.7-4.6,9.3,0l0,0c3.6,4.6,6.9,9.1,12.3,9.4
		C292.7,86.1,293.8,83.1,292.7,80.4z M259.8,72.5l-0.2-0.2L259.8,72.5C259.8,72.5,259.8,72.5,259.8,72.5z"/>
	<path class="st0" d="M236.3,56.4c-0.9-0.7-2-1.1-3.2-1.4c-2.4-0.6-5.9-0.9-10.4-0.9c-4.4,0-7.9,0.3-10.4,0.9
		c-6.4,1.3-6.4,7.6,0,8.9c2.4,0.6,5.9,0.9,10.4,0.9c4.4,0,7.9-0.3,10.4-0.9c1.2-0.3,2.3-0.7,3.2-1.4
		C238.4,61.1,238.4,57.9,236.3,56.4z"/>
</g>
</svg>
