<svg width="124" height="233" viewBox="0 0 124 233" fill="none" xmlns="http://www.w3.org/2000/svg">
<rect x="6" y="197.305" width="114" height="35.23" rx="17.615" transform="rotate(-5.69094 6 197.305)" fill="#2A2D51"/>
<path d="M25.1885 227.29L24.8935 224.329L25.9383 224.225C26.552 224.164 27.0081 223.951 27.3067 223.587C27.6054 223.222 27.7241 222.733 27.663 222.119L26.2945 208.387L29.628 208.055L30.9766 221.588C31.1006 222.832 31.0082 223.837 30.6995 224.605C30.3924 225.389 29.8574 225.987 29.0944 226.398C28.3314 226.809 27.3031 227.079 26.0095 227.208L25.1885 227.29ZM24.5871 211.17L24.3293 208.583L29.628 208.055L29.8858 210.642L24.5871 211.17ZM27.2429 206.559C26.5796 206.625 26.0647 206.5 25.6983 206.185C25.3468 205.852 25.1438 205.411 25.0893 204.864C25.0347 204.317 25.1476 203.853 25.428 203.474C25.725 203.092 26.2052 202.869 26.8686 202.803C27.5486 202.735 28.0634 202.859 28.4133 203.176C28.7797 203.491 28.9901 203.923 29.0447 204.47C29.0992 205.017 28.9788 205.49 28.6835 205.888C28.4031 206.267 27.9229 206.491 27.2429 206.559ZM39.5001 221.14C37.9411 221.296 36.6792 220.902 35.7143 219.96C34.7661 219.016 34.1911 217.532 33.9895 215.509L33.2086 207.673L36.6664 207.328L37.4771 215.463C37.5597 216.292 37.858 216.932 38.372 217.384C38.8843 217.818 39.5384 217.996 40.3345 217.917C41.1306 217.837 41.7517 217.516 42.198 216.952C42.6609 216.387 42.8486 215.665 42.761 214.786L41.9652 206.8L45.4231 206.456L46.7717 219.989L44.0352 220.261L43.4626 214.515L43.7362 214.488C43.8717 215.847 43.8108 217.001 43.5534 217.948C43.2961 218.895 42.8422 219.635 42.192 220.169C41.5417 220.702 40.6941 221.021 39.6493 221.125L39.5001 221.14ZM50.7438 219.593L49.3977 206.085L52.1341 205.812L52.7117 211.608L52.463 211.633C52.3258 210.257 52.3942 209.094 52.6682 208.146C52.9405 207.18 53.41 206.43 54.0769 205.895C54.7603 205.358 55.6411 205.035 56.7191 204.928L56.8683 204.913C58.477 204.753 59.748 205.154 60.6814 206.116C61.6131 207.062 62.1814 208.563 62.3863 210.619L63.1573 218.356L59.6994 218.7L58.8987 210.665C58.8161 209.836 58.5087 209.188 57.9765 208.722C57.4609 208.254 56.7885 208.062 55.9592 208.144C55.1134 208.228 54.4516 208.562 53.9738 209.146C53.5109 209.711 53.3233 210.434 53.4109 211.312L54.2017 219.248L50.7438 219.593ZM72.7631 217.574C71.5193 217.698 70.4753 217.643 69.6313 217.409C68.8022 217.157 68.1506 216.669 67.6766 215.946C67.2008 215.206 66.8977 214.181 66.7671 212.871L65.5723 200.629L68.8063 200.307L70.0234 212.772C70.0895 213.436 70.3149 213.932 70.6996 214.263C71.0991 214.575 71.6306 214.697 72.294 214.631L74.4085 214.421L74.7035 217.381L72.7631 217.574ZM64.0402 207.188L63.7873 204.651L73.34 203.699L73.5929 206.236L64.0402 207.188ZM84.0554 216.751C82.8614 216.87 81.7892 216.784 80.8391 216.493C79.8889 216.203 79.0665 215.765 78.3718 215.181C77.6755 214.581 77.1202 213.882 76.7059 213.086C76.3081 212.288 76.0646 211.442 75.9754 210.546L75.9233 210.024C75.8308 209.095 75.909 208.2 76.1581 207.337C76.4221 206.457 76.8369 205.662 77.4027 204.952C77.9834 204.224 78.7116 203.632 79.5874 203.177C80.4615 202.704 81.4708 202.411 82.6151 202.297C83.7594 202.183 84.8067 202.271 85.7568 202.562C86.7054 202.836 87.5278 203.273 88.2241 203.874C88.9353 204.456 89.499 205.154 89.9149 205.966C90.3293 206.762 90.5827 207.625 90.6753 208.554L90.7273 209.076C90.8166 209.972 90.7367 210.851 90.4876 211.713C90.2551 212.573 89.8568 213.367 89.2927 214.093C88.727 214.803 88.007 215.394 87.1329 215.866C86.2588 216.338 85.2329 216.633 84.0554 216.751ZM83.7604 213.79C84.6062 213.706 85.3012 213.452 85.8453 213.03C86.3877 212.59 86.7768 212.041 87.0125 211.381C87.2466 210.704 87.3232 209.96 87.2422 209.147C87.1595 208.318 86.9293 207.604 86.5514 207.005C86.1884 206.388 85.6902 205.927 85.0568 205.621C84.4383 205.298 83.7228 205.176 82.9101 205.257C82.0975 205.338 81.4116 205.599 80.8526 206.04C80.3085 206.463 79.9111 207.013 79.6605 207.692C79.4082 208.353 79.3233 209.099 79.406 209.928C79.487 210.741 79.7089 211.455 80.0719 212.072C80.4498 212.671 80.948 213.132 81.5665 213.456C82.1833 213.763 82.9146 213.874 83.7604 213.79ZM99.3425 215.177C97.485 215.362 95.9868 215.118 94.8477 214.444C93.7235 213.752 93.0672 212.712 92.8786 211.324L95.9882 211.014C96.0842 211.473 96.3834 211.871 96.8858 212.206C97.3882 212.541 98.1369 212.659 99.132 212.56C99.9612 212.477 100.601 212.263 101.053 211.916C101.52 211.568 101.729 211.137 101.677 210.623C101.633 210.175 101.407 209.838 100.999 209.61C100.607 209.381 99.9598 209.27 99.056 209.276L97.8495 209.271C96.3238 209.255 95.1199 208.94 94.2378 208.324C93.3558 207.709 92.8569 206.82 92.7412 205.66C92.6487 204.731 92.8032 203.928 93.2047 203.252C93.6063 202.575 94.1977 202.039 94.9789 201.643C95.7751 201.229 96.7039 200.968 97.7653 200.863C99.4238 200.697 100.803 200.928 101.904 201.556C103.005 202.183 103.651 203.199 103.841 204.604L100.732 204.914C100.652 204.452 100.38 204.078 99.9161 203.789C99.4518 203.5 98.8134 203.396 98.0007 203.477C97.271 203.55 96.7212 203.747 96.3513 204.069C95.9813 204.39 95.8187 204.775 95.8633 205.223C95.9063 205.654 96.0969 205.97 96.4351 206.171C96.7899 206.37 97.3364 206.475 98.0743 206.485L99.2808 206.49C100.889 206.497 102.177 206.813 103.144 207.437C104.127 208.059 104.679 208.975 104.8 210.186C104.889 211.082 104.718 211.886 104.286 212.599C103.87 213.294 103.24 213.867 102.398 214.32C101.555 214.772 100.537 215.058 99.3425 215.177Z" fill="#EBFBFF"/>
<rect x="37.7754" y="113" width="84" height="35.23" rx="17.615" transform="rotate(21.2625 37.7754 113)" fill="#2A2D51"/>
<path d="M44.9662 144.357L49.889 131.706L52.4519 132.703L50.3667 138.062L50.2968 138.034C51.0039 136.217 51.9271 134.994 53.0664 134.364C54.2056 133.734 55.5286 133.712 57.0352 134.299L57.5011 134.48L56.4041 137.299L55.5188 136.955C54.4316 136.531 53.4702 136.497 52.6348 136.852C51.8209 137.197 51.1995 137.921 50.7703 139.023L48.2046 145.617L44.9662 144.357ZM58.8374 150.21C57.3774 149.642 56.4309 148.72 55.998 147.442C55.5806 146.171 55.7405 144.588 56.4779 142.693L59.3337 135.354L62.5722 136.614L59.6076 144.233C59.3054 145.009 59.2811 145.715 59.5346 146.35C59.7943 146.97 60.2968 147.425 61.0424 147.715C61.7879 148.005 62.4874 148 63.1407 147.7C63.8096 147.406 64.3042 146.847 64.6245 146.024L67.5347 138.545L70.7731 139.805L65.8412 152.48L63.2784 151.482L65.3727 146.101L65.6289 146.2C65.1333 147.474 64.5562 148.474 63.8976 149.202C63.239 149.929 62.499 150.383 61.6774 150.564C60.8558 150.745 59.9557 150.646 58.9772 150.265L58.8374 150.21ZM74.9962 156.23C73.8313 155.777 72.9257 155.254 72.2795 154.663C71.6548 154.062 71.2951 153.332 71.2004 152.473C71.1117 151.598 71.3061 150.547 71.7835 149.32L76.2673 137.866L79.2961 139.044L74.7307 150.708C74.4889 151.329 74.4647 151.874 74.6579 152.343C74.8727 152.802 75.2907 153.152 75.912 153.394L77.8923 154.165L76.8135 156.937L74.9962 156.23ZM71.9285 143.018L72.8533 140.642L81.7998 144.123L80.875 146.5L71.9285 143.018ZM87.2146 160.797L88.6742 157.046L88.1384 156.837L89.7612 152.667C90.0453 151.937 90.0782 151.324 89.86 150.827C89.6417 150.331 89.1598 149.938 88.4143 149.648C88.026 149.497 87.557 149.323 87.0073 149.127C86.4577 148.931 85.8972 148.74 85.326 148.553C84.7763 148.357 84.278 148.19 83.831 148.052L84.9008 145.303C85.2701 145.411 85.686 145.537 86.1486 145.681C86.6111 145.825 87.0753 145.988 87.5413 146.17C88.0288 146.341 88.4823 146.509 88.9016 146.672C90.2063 147.18 91.2193 147.771 91.9406 148.445C92.6775 149.125 93.1213 149.915 93.2721 150.814C93.4385 151.719 93.292 152.762 92.8327 153.942L89.7774 161.794L87.2146 160.797ZM83.0105 159.536C82.0941 159.18 81.3499 158.702 80.7779 158.104C80.2214 157.512 79.8668 156.838 79.7142 156.081C79.5772 155.33 79.6749 154.527 80.0073 153.673C80.3699 152.741 80.8913 152.068 81.5714 151.653C82.2671 151.244 83.0839 151.052 84.0219 151.077C84.9755 151.109 86.0114 151.342 87.1298 151.777L90.0653 152.919L89.3129 154.853L86.3307 153.693C85.5851 153.402 84.9379 153.365 84.389 153.581C83.8617 153.787 83.4862 154.177 83.2626 154.752C83.039 155.327 83.0518 155.868 83.3011 156.377C83.5659 156.891 84.0711 157.293 84.8167 157.583C85.2671 157.759 85.7089 157.841 86.1421 157.831C86.5969 157.811 87.0241 157.655 87.4237 157.364C87.8449 157.063 88.204 156.577 88.501 155.905L88.9396 157.122C88.5174 157.977 88.0099 158.638 87.4169 159.105C86.8395 159.578 86.1767 159.856 85.4284 159.941C84.7018 160.016 83.8958 159.881 83.0105 159.536Z" fill="#EBFBFF"/>
<rect y="33.8931" width="109" height="35.23" rx="17.615" transform="rotate(-18.1162 0 33.8931)" fill="#2A2D51"/>
<path d="M25.5096 53.5507L21.2885 40.6486L23.9022 39.7935L25.7135 45.3297L25.4759 45.4075C25.0457 44.0927 24.8624 42.9427 24.9258 41.9575C24.9841 40.9564 25.2813 40.1227 25.8173 39.4563C26.3692 38.7847 27.1599 38.2805 28.1895 37.9437L28.3321 37.897C29.8686 37.3943 31.1961 37.5124 32.3147 38.2512C33.428 38.9742 34.306 40.3178 34.9486 42.282L37.3662 49.6716L34.0635 50.7522L31.5526 43.0775C31.2935 42.2854 30.8539 41.719 30.2339 41.3783C29.6297 41.0323 28.9316 40.9889 28.1395 41.248C27.3317 41.5123 26.7572 41.9809 26.4162 42.6536C26.0858 43.3053 26.0579 44.0509 26.3326 44.8905L28.8123 52.4701L25.5096 53.5507ZM45.4448 47.4758C43.9558 47.9629 42.6388 47.8502 41.4938 47.1375C40.3646 46.4197 39.4839 45.0946 38.8516 43.162L36.4029 35.6774L39.7057 34.5969L42.2477 42.3666C42.5068 43.1587 42.9358 43.7197 43.5349 44.0498C44.1287 44.3641 44.8058 44.3968 45.5661 44.1481C46.3264 43.8993 46.8639 43.4517 47.1785 42.8052C47.5089 42.1535 47.5367 41.4078 47.2621 40.5683L44.7667 32.9411L48.0695 31.8606L52.2983 44.7864L49.6846 45.6415L47.8889 40.1528L48.1503 40.0672C48.5752 41.3662 48.7639 42.5057 48.7163 43.4857C48.6687 44.4658 48.3848 45.2864 47.8646 45.9476C47.3444 46.6088 46.5853 47.1026 45.5874 47.4291L45.4448 47.4758ZM62.0138 42.1076C60.9049 42.4704 59.8686 42.599 58.9046 42.4935C57.9566 42.3828 57.1017 42.1014 56.3399 41.6491C55.5889 41.1759 54.9412 40.5899 54.397 39.8911C53.8686 39.1872 53.4696 38.4234 53.2001 37.5997L53.0524 37.1482C52.7726 36.2929 52.6378 35.4251 52.6479 34.545C52.6687 33.6438 52.8474 32.7963 53.1838 32.0023C53.531 31.1873 54.0489 30.4655 54.7375 29.8368C55.421 29.1924 56.2934 28.6965 57.3547 28.3493C58.7487 27.8932 60.014 27.8212 61.1507 28.1332C62.2981 28.4242 63.2726 28.991 64.0743 29.8334C64.8708 30.6601 65.4557 31.6436 65.8288 32.7842L66.2175 33.9722L54.7886 37.7113L54.1278 35.6917L63.4895 32.6288L62.7943 33.9611C62.5248 33.1374 62.1754 32.4713 61.7461 31.963C61.3167 31.4546 60.8047 31.1223 60.21 30.9662C59.6311 30.8049 58.9774 30.8434 58.2487 31.0818C57.52 31.3202 56.9567 31.6886 56.5586 32.1871C56.1605 32.6856 55.9305 33.2957 55.8685 34.0174C55.8172 34.7181 55.934 35.5041 56.2191 36.3753C56.4834 37.1831 56.8459 37.8624 57.3066 38.4131C57.7622 38.948 58.311 39.3121 58.9529 39.5054C59.5896 39.6829 60.3119 39.6394 61.1198 39.3751C61.9277 39.1108 62.5332 38.7374 62.9365 38.2547C63.3345 37.7562 63.5271 37.246 63.5142 36.7242L66.5556 35.7292C66.6557 36.6784 66.5453 37.5738 66.2244 38.4153C65.9035 39.2568 65.3828 39.9971 64.6625 40.6361C63.958 41.2699 63.0751 41.7604 62.0138 42.1076ZM73.3005 37.9152L65.0401 26.3347L68.4379 25.223L76.532 36.858L73.3005 37.9152ZM74.2747 37.5965L73.3885 34.8878L76.8814 33.7451L77.7675 36.4538L74.2747 37.5965ZM75.5816 37.169L74.687 23.1786L77.8709 22.1369L78.5992 36.1817L75.5816 37.169ZM92.2413 31.7185L90.9898 27.893L90.4433 28.0718L89.0518 23.8186C88.8082 23.0741 88.4447 22.5793 87.9612 22.3342C87.4776 22.089 86.8557 22.0909 86.0954 22.3396C85.6993 22.4692 85.2267 22.6326 84.6775 22.8298C84.1282 23.027 83.5737 23.2348 83.0138 23.453C82.4646 23.6502 81.9734 23.8372 81.5402 24.014L80.6229 21.2103C80.9769 21.0594 81.3784 20.893 81.8274 20.711C82.2764 20.529 82.7385 20.3603 83.2137 20.2048C83.6996 20.0283 84.1564 19.8701 84.584 19.7302C85.9146 19.2949 87.0726 19.1089 88.0578 19.1724C89.0589 19.2307 89.903 19.5595 90.5901 20.1589C91.293 20.7531 91.8414 21.6522 92.2353 22.856L94.855 30.8634L92.2413 31.7185ZM88.192 33.4115C87.2575 33.7173 86.3793 33.8204 85.5577 33.721C84.7519 33.6164 84.0499 33.32 83.4518 32.8317C82.8695 32.3383 82.4358 31.656 82.1508 30.7848C81.8399 29.8344 81.8156 28.983 82.078 28.2308C82.3563 27.4734 82.866 26.8069 83.6071 26.2312C84.364 25.6504 85.3127 25.1735 86.4532 24.8003L89.4471 23.8208L90.0923 25.793L87.0509 26.788C86.2906 27.0368 85.7667 27.4186 85.4792 27.9335C85.2024 28.4274 85.1599 28.9674 85.3516 29.5535C85.5434 30.1396 85.8968 30.55 86.412 30.7848C86.9431 31.0144 87.5888 31.0048 88.3491 30.756C88.8085 30.6057 89.2024 30.3892 89.5307 30.1064C89.8697 29.8026 90.1012 29.4113 90.225 28.9323C90.3596 28.4324 90.3287 27.8287 90.1323 27.1214L91.2434 27.7837C91.4596 28.7126 91.4866 29.5455 91.3243 30.2824C91.178 31.0142 90.8424 31.6501 90.3176 32.19C89.8035 32.709 89.095 33.1161 88.192 33.4115Z" fill="#EBFBFF"/>
<circle cx="91.8027" cy="88.63" r="22.6611" transform="rotate(-24.6575 91.8027 88.63)" fill="#2A2D51"/>
<path d="M100.001 90.1388C96.1526 88.0087 94.6762 84.9636 95.4871 80.8311C96.4387 76.0425 95.9827 74.9158 95.3477 74.4114C95.1133 74.2252 94.6074 73.9645 93.8524 74.3111C92.31 75.0191 91.2243 77.0816 90.5328 80.6224C90.2794 81.9709 89.8193 82.8138 89.1664 83.1282C88.4869 83.4542 87.4926 83.2714 86.2033 82.5864C82.9673 80.866 80.6485 80.3723 79.1142 81.0766C78.3355 81.4341 78.2057 81.9986 78.197 82.3028C78.1746 83.1248 78.7666 84.2126 83.2028 86.5795C86.9799 88.6386 88.3893 91.7111 87.511 95.9704C86.4645 101.014 86.9235 102.192 87.5754 102.714C87.8125 102.904 88.3252 103.17 89.0946 102.817C90.6365 102.109 91.7441 99.956 92.4824 96.2294C92.7598 94.7774 93.253 93.8769 93.9486 93.5516C94.6657 93.2393 95.681 93.4277 96.9988 94.1605C100.301 96.0272 102.67 96.5845 104.239 95.8644C105.003 95.5135 105.136 94.9531 105.147 94.65C105.177 93.8098 104.574 92.6823 100.002 90.1375L100.001 90.1388Z" fill="#45D8FF"/>
</svg>
