<svg width="165" height="275" viewBox="0 0 165 275" fill="none" xmlns="http://www.w3.org/2000/svg">
<rect x="31" y="239.35" width="98" height="35.23" rx="17.615" transform="rotate(-7.82933 31 239.35)" fill="#2A2D51"/>
<path d="M52.7512 263.224L50.902 249.776L53.6264 249.401L54.4199 255.172L54.1722 255.206C53.986 253.852 54.0039 252.697 54.2258 251.741C54.4454 250.769 54.8619 250.005 55.4752 249.45C56.1029 248.875 56.9285 248.518 57.9522 248.377L58.1008 248.357C59.1411 248.214 60.0326 248.335 60.7754 248.721C61.5324 249.088 62.1396 249.711 62.597 250.59C63.0686 251.451 63.3975 252.558 63.5837 253.912L62.7168 254.031C62.5306 252.677 62.5485 251.522 62.7704 250.566C63.0065 249.592 63.4312 248.827 64.0446 248.271C64.6722 247.697 65.4979 247.34 66.5216 247.199L66.6702 247.178C67.7104 247.035 68.6102 247.156 69.3695 247.539C70.1266 247.906 70.742 248.528 71.2159 249.405C71.704 250.263 72.0412 251.369 72.2273 252.723L73.2831 260.401L69.8404 260.874L68.7404 252.875C68.6247 252.032 68.3181 251.393 67.8207 250.957C67.321 250.504 66.6749 250.332 65.8823 250.441C65.0898 250.55 64.4904 250.902 64.0843 251.496C63.6758 252.074 63.5317 252.8 63.6521 253.675L64.7385 261.576L61.2958 262.049L60.1958 254.049C60.0801 253.207 59.7735 252.568 59.2761 252.132C58.7764 251.679 58.1303 251.507 57.3377 251.616C56.5452 251.725 55.9458 252.077 55.5397 252.671C55.1312 253.249 54.9871 253.975 55.1075 254.85L56.1939 262.751L52.7512 263.224ZM83.045 259.538C81.8892 259.697 80.8465 259.638 79.9169 259.363C79.0038 259.084 78.213 258.655 77.5442 258.074C76.8898 257.474 76.3572 256.782 75.9465 255.997C75.5522 255.21 75.2961 254.387 75.178 253.529L75.1133 253.058C74.9907 252.167 75.013 251.289 75.1802 250.424C75.3616 249.542 75.6887 248.739 76.1616 248.018C76.6487 247.278 77.2871 246.661 78.077 246.165C78.8646 245.653 79.8115 245.321 80.9178 245.169C82.3707 244.969 83.6286 245.124 84.6913 245.634C85.7683 246.125 86.6259 246.857 87.2643 247.829C87.9004 248.785 88.3002 249.857 88.4637 251.046L88.6339 252.284L76.721 253.922L76.4316 251.817L86.1897 250.475L85.2678 251.662C85.1497 250.803 84.9249 250.086 84.5932 249.509C84.2615 248.932 83.8171 248.513 83.2598 248.254C82.719 247.991 82.0689 247.913 81.3094 248.017C80.5499 248.122 79.9298 248.383 79.4491 248.803C78.9684 249.222 78.6331 249.781 78.4432 250.48C78.2676 251.161 78.2422 251.955 78.3671 252.863C78.4829 253.705 78.7183 254.438 79.0733 255.062C79.426 255.67 79.9009 256.126 80.498 256.431C81.0928 256.719 81.8113 256.806 82.6534 256.69C83.4954 256.574 84.1579 256.315 84.6409 255.912C85.1216 255.492 85.4022 255.025 85.4827 254.509L88.6528 254.073C88.5818 255.025 88.3133 255.886 87.8473 256.657C87.3813 257.428 86.7368 258.063 85.9139 258.563C85.1076 259.061 84.1512 259.386 83.045 259.538ZM98.1892 257.153C96.9508 257.323 95.9056 257.307 95.0534 257.105C94.2154 256.883 93.5461 256.42 93.0454 255.715C92.5424 254.994 92.2012 253.981 92.0219 252.676L90.3711 240.487L93.5908 240.045L95.2722 252.456C95.363 253.117 95.6068 253.605 96.0035 253.92C96.4144 254.217 96.9501 254.32 97.6105 254.229L99.7157 253.94L100.121 256.887L98.1892 257.153ZM89.0848 247.099L88.7374 244.573L98.2479 243.265L98.5953 245.792L89.0848 247.099ZM111.087 255.203L110.538 251.215L109.969 251.294L109.359 246.86C109.252 246.084 108.983 245.532 108.551 245.205C108.119 244.877 107.507 244.768 106.714 244.877C106.301 244.934 105.807 245.01 105.232 245.106C104.656 245.202 104.073 245.308 103.483 245.422C102.908 245.518 102.391 245.615 101.933 245.711L101.531 242.789C101.907 242.703 102.331 242.611 102.806 242.512C103.28 242.414 103.765 242.33 104.26 242.262C104.77 242.175 105.247 242.101 105.693 242.04C107.08 241.849 108.253 241.873 109.211 242.111C110.185 242.347 110.957 242.822 111.526 243.534C112.112 244.244 112.491 245.227 112.663 246.482L113.811 254.828L111.087 255.203ZM106.8 256.145C105.826 256.279 104.943 256.224 104.153 255.98C103.379 255.733 102.741 255.316 102.239 254.728C101.755 254.139 101.45 253.39 101.325 252.482C101.189 251.491 101.317 250.649 101.709 249.956C102.118 249.261 102.739 248.696 103.571 248.262C104.419 247.826 105.438 247.526 106.627 247.362L109.748 246.933L110.03 248.989L106.86 249.425C106.067 249.534 105.484 249.816 105.109 250.271C104.748 250.708 104.61 251.231 104.694 251.842C104.778 252.453 105.053 252.92 105.518 253.243C105.999 253.564 106.636 253.67 107.429 253.561C107.908 253.495 108.334 253.352 108.707 253.133C109.095 252.894 109.393 252.55 109.6 252.101C109.822 251.633 109.899 251.034 109.832 250.303L110.807 251.153C110.854 252.106 110.732 252.93 110.441 253.626C110.166 254.32 109.722 254.886 109.11 255.323C108.511 255.742 107.741 256.016 106.8 256.145Z" fill="#EBFBFF"/>
<rect x="27.7754" y="128" width="130" height="35.23" rx="17.615" transform="rotate(21.2625 27.7754 128)" fill="#2A2D51"/>
<path d="M35.241 159.464L40.1639 146.813L42.7267 147.81L40.6143 153.238L40.3813 153.148C40.883 151.859 41.4709 150.853 42.145 150.132C42.8252 149.395 43.5838 148.939 44.4209 148.764C45.2736 148.595 46.2047 148.707 47.2143 149.1L47.3541 149.155C48.8607 149.741 49.8119 150.674 50.2078 151.955C50.6096 153.22 50.4358 154.816 49.6864 156.742L46.8669 163.988L43.6284 162.727L46.5567 155.202C46.8589 154.425 46.8785 153.709 46.6154 153.052C46.3679 152.401 45.8558 151.925 45.0792 151.623C44.2871 151.314 43.5458 151.312 42.8553 151.616C42.1865 151.91 41.6919 152.468 41.3716 153.292L38.4795 160.724L35.241 159.464ZM54.5045 167.416C53.0445 166.847 52.098 165.925 51.6651 164.647C51.2477 163.376 51.4077 161.793 52.145 159.898L55.0008 152.559L58.2393 153.819L55.2747 161.438C54.9725 162.215 54.9482 162.921 55.2018 163.556C55.4614 164.175 55.964 164.63 56.7095 164.92C57.455 165.21 58.1545 165.205 58.8078 164.905C59.4767 164.611 59.9713 164.052 60.2916 163.229L63.2018 155.751L66.4402 157.011L61.5083 169.685L58.9455 168.688L61.0398 163.306L61.2961 163.406C60.8004 164.679 60.2233 165.68 59.5647 166.407C58.9062 167.134 58.1661 167.589 57.3445 167.77C56.5229 167.951 55.6228 167.851 54.6443 167.47L54.5045 167.416ZM70.7176 173.778C69.6304 173.355 68.7477 172.797 68.0695 172.104C67.4069 171.417 66.9247 170.657 66.6228 169.824C66.3425 168.982 66.2137 168.118 66.2363 167.233C66.2745 166.353 66.4507 165.51 66.765 164.702L66.9372 164.259C67.2636 163.421 67.7099 162.664 68.2762 161.99C68.864 161.307 69.5398 160.765 70.3036 160.365C71.089 159.955 71.9473 159.726 72.8784 159.677C73.8156 159.612 74.8045 159.783 75.8452 160.188C77.212 160.719 78.2358 161.467 78.9164 162.429C79.6187 163.382 80.0124 164.438 80.0976 165.598C80.1889 166.742 80.0169 167.874 79.5817 168.992L79.1284 170.157L67.922 165.796L68.6926 163.816L77.8721 167.388L76.4895 167.976C76.8038 167.169 76.9562 166.432 76.9469 165.767C76.9375 165.102 76.7526 164.52 76.3919 164.022C76.0469 163.53 75.5171 163.145 74.8026 162.867C74.0881 162.589 73.4189 162.516 72.7949 162.649C72.171 162.782 71.6061 163.107 71.1003 163.626C70.6161 164.135 70.2077 164.817 69.8753 165.671C69.5671 166.463 69.4163 167.218 69.4231 167.936C69.4359 168.639 69.6291 169.268 70.0026 169.825C70.3822 170.366 70.9681 170.791 71.7602 171.099C72.5523 171.407 73.2574 171.503 73.8753 171.385C74.4992 171.253 74.9718 170.981 75.2929 170.569L78.275 171.729C77.7502 172.527 77.0968 173.149 76.3149 173.596C75.5329 174.042 74.6608 174.284 73.6986 174.321C72.7519 174.364 71.7583 174.183 70.7176 173.778ZM84.1117 178.937C82.3721 178.26 81.1473 177.363 80.4373 176.246C79.7489 175.12 79.6352 173.895 80.0963 172.572L83.0086 173.706C82.8859 174.159 82.9726 174.648 83.2685 175.175C83.5643 175.701 84.1783 176.146 85.1102 176.508C85.8868 176.811 86.5547 176.91 87.1139 176.805C87.6887 176.707 88.0698 176.417 88.2571 175.936C88.4203 175.516 88.3716 175.113 88.1111 174.725C87.8661 174.344 87.3393 173.951 86.5308 173.547L85.4578 172.995C84.1048 172.29 83.1747 171.463 82.6675 170.515C82.1603 169.566 82.1182 168.548 82.5413 167.461C82.8798 166.591 83.3813 165.946 84.0459 165.525C84.7104 165.104 85.4807 164.894 86.3566 164.895C87.2541 164.886 88.1998 165.076 89.1939 165.462C90.7471 166.067 91.8722 166.898 92.5693 167.956C93.2664 169.014 93.3813 170.213 92.9142 171.551L90.0019 170.418C90.1401 169.971 90.0677 169.513 89.7847 169.046C89.5018 168.578 88.9797 168.196 88.2187 167.9C87.5353 167.634 86.9558 167.56 86.4803 167.679C86.0047 167.798 85.6854 168.067 85.5222 168.487C85.3651 168.891 85.3917 169.259 85.6022 169.591C85.8283 169.929 86.2679 170.27 86.9211 170.614L87.994 171.166C89.4247 171.901 90.4294 172.766 91.0083 173.76C91.6027 174.761 91.6792 175.828 91.238 176.961C90.9116 177.8 90.3946 178.44 89.6869 178.88C89.0007 179.31 88.1796 179.536 87.2234 179.557C86.2672 179.579 85.23 179.372 84.1117 178.937ZM97.8977 184.033C96.7328 183.58 95.8272 183.057 95.1809 182.466C94.5563 181.865 94.1966 181.135 94.1018 180.276C94.0131 179.401 94.2075 178.349 94.685 177.122L99.1688 165.669L102.198 166.847L97.6322 178.511C97.3904 179.132 97.3661 179.677 97.5593 180.146C97.7741 180.605 98.1921 180.955 98.8134 181.197L100.794 181.968L99.7149 184.74L97.8977 184.033ZM94.83 170.821L95.7547 168.445L104.701 171.926L103.777 174.302L94.83 170.821ZM102.496 185.635L107.419 172.984L109.982 173.981L107.897 179.34L107.827 179.312C108.534 177.495 109.457 176.272 110.597 175.642C111.736 175.012 113.059 174.99 114.565 175.577L115.031 175.758L113.934 178.577L113.049 178.233C111.962 177.81 111 177.775 110.165 178.13C109.351 178.475 108.73 179.199 108.301 180.301L105.735 186.895L102.496 185.635ZM119.808 192.371L121.268 188.62L120.732 188.412L122.355 184.241C122.639 183.511 122.672 182.898 122.454 182.402C122.236 181.906 121.754 181.513 121.008 181.222C120.62 181.071 120.151 180.898 119.601 180.702C119.052 180.506 118.491 180.314 117.92 180.128C117.37 179.932 116.872 179.765 116.425 179.627L117.495 176.878C117.864 176.985 118.28 177.112 118.742 177.256C119.205 177.4 119.669 177.563 120.135 177.744C120.623 177.916 121.076 178.083 121.496 178.247C122.8 178.754 123.813 179.345 124.535 180.019C125.271 180.699 125.715 181.489 125.866 182.388C126.032 183.294 125.886 184.337 125.427 185.517L122.371 193.369L119.808 192.371ZM115.604 191.111C114.688 190.754 113.944 190.277 113.372 189.679C112.815 189.087 112.461 188.412 112.308 187.655C112.171 186.905 112.269 186.102 112.601 185.248C112.964 184.316 113.485 183.642 114.165 183.227C114.861 182.818 115.678 182.627 116.616 182.652C117.569 182.683 118.605 182.916 119.724 183.352L122.659 184.494L121.907 186.428L118.925 185.267C118.179 184.977 117.532 184.94 116.983 185.155C116.456 185.362 116.08 185.752 115.856 186.327C115.633 186.901 115.646 187.443 115.895 187.951C116.16 188.466 116.665 188.868 117.411 189.158C117.861 189.333 118.303 189.416 118.736 189.405C119.191 189.386 119.618 189.23 120.018 188.938C120.439 188.637 120.798 188.151 121.095 187.48L121.533 188.697C121.111 189.552 120.604 190.213 120.011 190.679C119.433 191.152 118.771 191.431 118.022 191.515C117.296 191.59 116.49 191.455 115.604 191.111Z" fill="#EBFBFF"/>
<rect y="50.8926" width="162" height="35.23" rx="17.615" transform="rotate(-18.1162 0 50.8926)" fill="#2A2D51"/>
<path d="M31.4486 68.7913C30.2606 69.18 29.2292 69.3508 28.3546 69.3038C27.4906 69.2357 26.7493 68.8995 26.1307 68.2953C25.507 67.6751 24.9904 66.7394 24.581 65.488L20.7801 53.7899L23.869 52.7794L27.7399 64.6912C27.9472 65.3249 28.2741 65.7615 28.7208 66.0012C29.1781 66.2198 29.7236 66.2255 30.3572 66.0182L32.3769 65.3574L33.3019 68.1849L31.4486 68.7913ZM20.6952 60.5252L19.9023 58.1016L29.0264 55.1166L29.8193 57.5401L20.6952 60.5252ZM40.5474 66.0775C39.0584 66.5647 37.7414 66.4519 36.5964 65.7393C35.4672 65.0215 34.5865 63.6963 33.9542 61.7638L31.5056 54.2792L34.8083 53.1986L37.3503 60.9684C37.6094 61.7604 38.0385 62.3215 38.6375 62.6516C39.2313 62.9658 39.9084 62.9986 40.6687 62.7498C41.429 62.5011 41.9665 62.0534 42.2811 61.4069C42.6115 60.7552 42.6393 60.0096 42.3647 59.17L39.8693 51.5429L43.1721 50.4623L47.4009 63.3881L44.7872 64.2432L42.9915 58.7545L43.2529 58.669C43.6779 59.9679 43.8665 61.1074 43.8189 62.0875C43.7713 63.0675 43.4874 63.8882 42.9672 64.5493C42.447 65.2105 41.6879 65.7044 40.69 66.0309L40.5474 66.0775ZM62.1969 59.0472C61.0722 59.4152 60.0358 59.5438 59.0878 59.4331C58.1555 59.3172 57.3085 59.0332 56.5468 58.581C55.801 58.1235 55.1638 57.5429 54.6354 56.839C54.107 56.135 53.708 55.3712 53.4386 54.5475L53.2909 54.0961C53.0058 53.2248 52.8684 52.3492 52.8786 51.469C52.8994 50.5679 53.086 49.7177 53.4383 48.9186C53.7854 48.1036 54.3033 47.3817 54.9919 46.7531C55.6913 46.1035 56.5795 45.6024 57.6567 45.25C58.7813 44.8821 59.8597 44.7748 60.8919 44.9281C61.9189 45.0655 62.8207 45.4369 63.5974 46.042C64.3899 46.642 64.9863 47.4465 65.3865 48.4554L62.1788 49.5048C61.882 48.8654 61.4155 48.4043 60.7793 48.1214C60.159 47.8333 59.429 47.8266 58.5895 48.1013C57.8608 48.3397 57.308 48.7135 56.9309 49.2226C56.5697 49.7266 56.3714 50.3263 56.3359 51.0218C56.2952 51.7015 56.4044 52.4373 56.6636 53.2294C56.9123 53.9897 57.2486 54.6425 57.6725 55.1877C58.1122 55.7278 58.6267 56.0943 59.2159 56.2873C59.821 56.4751 60.5037 56.4447 61.2641 56.1959C61.8343 56.0094 62.2917 55.7457 62.6362 55.4051C62.9806 55.0644 63.2121 54.673 63.3305 54.231C63.4648 53.7837 63.4884 53.32 63.4015 52.8399L66.6092 51.7905C66.8879 52.8567 66.8795 53.8765 66.5843 54.8499C66.2996 55.8023 65.7784 56.648 65.0206 57.3869C64.2786 58.1206 63.3374 58.6741 62.1969 59.0472ZM78.6425 53.167L77.391 49.3416L76.8445 49.5204L75.453 45.2672C75.2094 44.5227 74.8459 44.0279 74.3623 43.7827C73.8788 43.5376 73.2569 43.5394 72.4965 43.7882C72.1005 43.9177 71.6279 44.0811 71.0787 44.2783C70.5294 44.4756 69.9749 44.6833 69.415 44.9016C68.8657 45.0988 68.3745 45.2858 67.9414 45.4626L67.0241 42.6588C67.378 42.5079 67.7795 42.3415 68.2285 42.1595C68.6776 41.9776 69.1397 41.8088 69.6149 41.6534C70.1007 41.4769 70.5575 41.3187 70.9852 41.1787C72.3158 40.7434 73.4737 40.5575 74.459 40.6209C75.4601 40.6792 76.3042 41.0081 76.9913 41.6074C77.6942 42.2017 78.2426 43.1007 78.6365 44.3046L81.2562 52.3119L78.6425 53.167ZM74.5932 54.8601C73.6586 55.1658 72.7805 55.269 71.9589 55.1695C71.1531 55.0649 70.4511 54.7685 69.853 54.2803C69.2707 53.7869 68.837 53.1046 68.552 52.2334C68.241 51.2829 68.2168 50.4316 68.4792 49.6794C68.7575 48.922 69.2672 48.2554 70.0083 47.6798C70.7652 47.099 71.7139 46.622 72.8544 46.2489L75.8483 45.2694L76.4935 47.2415L73.4521 48.2366C72.6918 48.4853 72.1679 48.8671 71.8804 49.3821C71.6036 49.8759 71.561 50.4159 71.7528 51.002C71.9445 51.5881 72.298 51.9986 72.8132 52.2333C73.3443 52.4629 73.99 52.4533 74.7503 52.2046C75.2097 52.0543 75.6035 51.8378 75.9319 51.555C76.2709 51.2512 76.5023 50.8598 76.6262 50.3809C76.7608 49.8809 76.7299 49.2773 76.5335 48.5699L77.6446 49.2323C77.8607 50.1611 77.8877 50.994 77.7255 51.731C77.5791 52.4628 77.2436 53.0986 76.7188 53.6386C76.2046 54.1575 75.4961 54.5647 74.5932 54.8601ZM84.7939 51.1545L80.5729 38.2525L83.1865 37.3974L84.9978 42.9336L84.7602 43.0113C84.3352 41.7124 84.1465 40.5729 84.1942 39.5929C84.2366 38.597 84.51 37.771 85.0143 37.115C85.5294 36.438 86.2779 35.9388 87.26 35.6175L87.4026 35.5708C88.4005 35.2444 89.2994 35.2046 90.0991 35.4515C90.9095 35.6773 91.6183 36.182 92.2253 36.9654C92.843 37.7278 93.3643 38.7584 93.7892 40.0574L92.9576 40.3294C92.5327 39.0305 92.344 37.891 92.3916 36.911C92.4499 35.9099 92.7312 35.0813 93.2355 34.4253C93.7506 33.7483 94.4991 33.2491 95.4812 32.9278L95.6238 32.8812C96.6217 32.5547 97.5285 32.5123 98.3441 32.754C99.1545 32.9799 99.8711 33.4819 100.494 34.2602C101.128 35.0174 101.657 36.0454 102.082 37.3444L104.492 44.7102L101.189 45.7907L98.6779 38.116C98.4136 37.3081 97.9978 36.734 97.4305 36.3935C96.858 36.0372 96.1916 35.9834 95.4312 36.2322C94.6709 36.4809 94.1439 36.9339 93.8504 37.5911C93.5517 38.2324 93.5397 38.9729 93.8143 39.8124L96.2941 47.3921L92.9914 48.4726L90.4805 40.7979C90.2162 39.99 89.8004 39.4159 89.2331 39.0754C88.6605 38.7191 87.9941 38.6653 87.2338 38.9141C86.4734 39.1628 85.9465 39.6158 85.653 40.273C85.3542 40.9143 85.3422 41.6548 85.6169 42.4943L88.0967 50.074L84.7939 51.1545ZM115.741 41.5034C114.679 41.8506 113.672 41.9346 112.719 41.7554C111.761 41.5603 110.91 41.1023 110.165 40.3814C109.421 39.6604 108.823 38.69 108.371 37.47L108.87 37.3067L110.635 42.7004L108.021 43.5555L102.346 26.2102L105.649 25.1296L108.486 33.8023L108.05 35.4443C107.678 34.093 107.577 32.8986 107.746 31.8613C107.931 30.8187 108.347 29.9461 108.994 29.2435C109.641 28.5408 110.463 28.0262 111.461 27.6997C112.348 27.4095 113.211 27.3115 114.048 27.4058C114.886 27.5001 115.664 27.7627 116.384 28.1936C117.098 28.6086 117.72 29.1681 118.248 29.8721C118.792 30.5708 119.217 31.3875 119.523 32.3221L119.686 32.821C119.992 33.7556 120.135 34.6735 120.114 35.5746C120.093 36.4758 119.914 37.3233 119.578 38.1173C119.236 38.8955 118.742 39.5832 118.096 40.1804C117.46 40.7566 116.675 41.1976 115.741 41.5034ZM114.094 38.9644C114.807 38.7312 115.368 38.3548 115.777 37.8353C116.196 37.2948 116.455 36.6664 116.554 35.9501C116.653 35.2339 116.57 34.4718 116.306 33.664C116.036 32.8403 115.653 32.1767 115.155 31.6732C114.657 31.1697 114.084 30.8398 113.437 30.6833C112.805 30.5217 112.133 30.5575 111.42 30.7907C110.771 31.0032 110.216 31.3427 109.754 31.8092C109.309 32.2705 109.003 32.8354 108.836 33.5038C108.685 34.1671 108.736 34.8868 108.99 35.663L109.301 36.6134C109.544 37.3579 109.926 37.9345 110.445 38.3432C110.965 38.7519 111.549 39.0082 112.196 39.1119C112.844 39.2157 113.477 39.1665 114.094 38.9644ZM125.253 37.9179L121.032 25.0158L124.334 23.9353L128.555 36.8374L125.253 37.9179ZM120.034 28.0778L119.226 25.6066L124.334 23.9353L125.143 26.4064L120.034 28.0778ZM121.738 23.0749C121.089 23.2874 120.551 23.2792 120.125 23.0502C119.71 22.8001 119.42 22.4217 119.254 21.9148C119.078 21.3762 119.086 20.8914 119.278 20.4602C119.486 20.0239 119.915 19.6996 120.564 19.4871C121.214 19.2746 121.743 19.2855 122.153 19.5196C122.563 19.7538 122.856 20.1402 123.032 20.6788C123.198 21.1857 123.187 21.6626 123 22.1096C122.808 22.5407 122.388 22.8625 121.738 23.0749ZM138.711 34.0146C137.57 34.3877 136.505 34.5347 135.515 34.4554C134.524 34.3761 133.627 34.126 132.823 33.7051C132.014 33.2685 131.321 32.7059 130.745 32.0176C130.185 31.324 129.765 30.5495 129.485 29.6941L129.322 29.1952C129.032 28.3081 128.915 27.4167 128.973 26.5211C129.042 25.6044 129.276 24.7387 129.675 23.9239C130.086 23.0882 130.67 22.3536 131.427 21.7201C132.179 21.0707 133.102 20.5672 134.194 20.2096C135.287 19.8521 136.329 19.7129 137.32 19.7922C138.305 19.8557 139.202 20.1057 140.011 20.5424C140.831 20.9581 141.532 21.518 142.113 22.2222C142.689 22.9106 143.122 23.6983 143.412 24.5854L143.575 25.0844C143.855 25.9398 143.966 26.8153 143.909 27.711C143.867 28.6014 143.648 29.462 143.254 30.2925C142.854 31.1072 142.278 31.8393 141.526 32.4886C140.774 33.138 139.836 33.6467 138.711 34.0146ZM137.786 31.1871C138.594 30.9228 139.218 30.5257 139.658 29.9958C140.094 29.4501 140.355 28.8296 140.443 28.1344C140.526 27.4233 140.441 26.6797 140.187 25.9035C139.928 25.1115 139.549 24.4638 139.052 23.9603C138.564 23.4358 137.979 23.0926 137.294 22.9307C136.621 22.7477 135.896 22.7832 135.12 23.0372C134.343 23.2911 133.73 23.6935 133.279 24.2444C132.838 24.7743 132.569 25.3974 132.47 26.1136C132.366 26.814 132.443 27.5602 132.702 28.3522C132.956 29.1284 133.327 29.7788 133.814 30.3033C134.312 30.8067 134.898 31.1499 135.571 31.3329C136.24 31.5 136.978 31.4514 137.786 31.1871Z" fill="#EBFBFF"/>
<circle cx="109.35" cy="103.72" r="22.6611" transform="rotate(-24.6575 109.35 103.72)" fill="#2A2D51"/>
<path d="M117.548 105.229C113.699 103.099 112.223 100.053 113.034 95.9209C113.986 91.1324 113.53 90.0056 112.895 89.5012C112.66 89.315 112.154 89.0543 111.399 89.4009C109.857 90.109 108.771 92.1714 108.08 95.7122C107.826 97.0608 107.366 97.9036 106.713 98.218C106.034 98.5441 105.039 98.3613 103.75 97.6763C100.514 95.9558 98.1954 95.4622 96.6611 96.1665C95.8823 96.524 95.7526 97.0884 95.7439 97.3927C95.7215 98.2146 96.3135 99.3024 100.75 101.669C104.527 103.728 105.936 106.801 105.058 111.06C104.011 116.103 104.47 117.282 105.122 117.804C105.359 117.994 105.872 118.26 106.641 117.907C108.183 117.199 109.291 115.046 110.029 111.319C110.307 109.867 110.8 108.967 111.495 108.641C112.213 108.329 113.228 108.518 114.546 109.25C117.848 111.117 120.217 111.674 121.786 110.954C122.55 110.603 122.683 110.043 122.694 109.74C122.724 108.9 122.121 107.772 117.549 105.227L117.548 105.229Z" fill="#45D8FF"/>
</svg>
