<?xml version="1.0" encoding="UTF-8" standalone="no"?><svg width="123" height="227" viewBox="0 0 123 227" fill="none" xmlns="http://www.w3.org/2000/svg">
<rect x="6" y="191.305" width="114" height="35.23" rx="17.615" transform="rotate(-5.69094 6 191.305)" fill="#154ADA"/>
<path d="M25.1876 221.29L24.8925 218.329L25.9374 218.225C26.551 218.164 27.0071 217.951 27.3058 217.587C27.6044 217.222 27.7231 216.733 27.662 216.119L26.2936 202.387L29.627 202.055L30.9757 215.588C31.0996 216.832 31.0072 217.837 30.6985 218.605C30.3914 219.389 29.8564 219.987 29.0934 220.398C28.3304 220.809 27.3021 221.079 26.0085 221.208L25.1876 221.29ZM24.5861 205.17L24.3283 202.583L29.627 202.055L29.8849 204.642L24.5861 205.17ZM27.242 200.559C26.5786 200.625 26.0637 200.5 25.6973 200.185C25.3458 199.852 25.1428 199.411 25.0883 198.864C25.0337 198.317 25.1467 197.853 25.4271 197.474C25.7241 197.092 26.2042 196.869 26.8676 196.803C27.5476 196.735 28.0625 196.859 28.4123 197.176C28.7787 197.491 28.9892 197.923 29.0437 198.47C29.0982 199.017 28.9778 199.49 28.6825 199.888C28.4021 200.267 27.9219 200.491 27.242 200.559ZM39.4991 215.14C37.9401 215.296 36.6782 214.902 35.7134 213.96C34.7651 213.016 34.1901 211.532 33.9885 209.509L33.2076 201.673L36.6655 201.328L37.4761 209.463C37.5588 210.292 37.8571 210.932 38.371 211.384C38.8833 211.818 39.5375 211.996 40.3335 211.917C41.1296 211.837 41.7508 211.516 42.1971 210.952C42.66 210.387 42.8476 209.665 42.76 208.786L41.9642 200.8L45.4221 200.456L46.7707 213.989L44.0343 214.261L43.4616 208.515L43.7352 208.488C43.8708 209.847 43.8098 211.001 43.5525 211.948C43.2951 212.895 42.8413 213.635 42.191 214.169C41.5407 214.702 40.6932 215.021 39.6483 215.125L39.4991 215.14ZM50.7428 213.593L49.3967 200.085L52.1331 199.812L52.7108 205.608L52.462 205.633C52.3248 204.257 52.3932 203.094 52.6672 202.146C52.9395 201.18 53.4091 200.43 54.0759 199.895C54.7594 199.358 55.6401 199.035 56.7181 198.928L56.8673 198.913C58.476 198.753 59.7471 199.154 60.6804 200.116C61.6121 201.062 62.1804 202.563 62.3854 204.619L63.1563 212.356L59.6985 212.7L58.8977 204.665C58.8151 203.836 58.5077 203.188 57.9755 202.722C57.4599 202.254 56.7875 202.062 55.9583 202.144C55.1125 202.228 54.4506 202.562 53.9728 203.146C53.5099 203.711 53.3223 204.434 53.4099 205.312L54.2007 213.248L50.7428 213.593ZM72.7621 211.574C71.5183 211.698 70.4744 211.643 69.6303 211.409C68.8012 211.157 68.1496 210.669 67.6756 209.946C67.1999 209.206 66.8967 208.181 66.7662 206.871L65.5713 194.629L68.8053 194.307L70.0225 206.772C70.0886 207.436 70.3139 207.932 70.6986 208.263C71.0981 208.575 71.6296 208.697 72.293 208.631L74.4075 208.421L74.7025 211.381L72.7621 211.574ZM64.0392 201.188L63.7864 198.651L73.339 197.699L73.5919 200.236L64.0392 201.188ZM84.0545 210.751C82.8604 210.87 81.7883 210.784 80.8381 210.493C79.8879 210.203 79.0655 209.765 78.3709 209.181C77.6745 208.581 77.1192 207.882 76.7049 207.086C76.3071 206.288 76.0637 205.442 75.9744 204.546L75.9223 204.024C75.8298 203.095 75.908 202.2 76.1571 201.337C76.4211 200.457 76.836 199.662 77.4017 198.952C77.9824 198.224 78.7106 197.632 79.5864 197.177C80.4606 196.704 81.4698 196.411 82.6141 196.297C83.7585 196.183 84.8057 196.271 85.7559 196.562C86.7044 196.836 87.5268 197.273 88.2231 197.874C88.9344 198.456 89.498 199.154 89.914 199.966C90.3283 200.762 90.5817 201.625 90.6743 202.554L90.7263 203.076C90.8156 203.972 90.7357 204.851 90.4866 205.713C90.2542 206.573 89.8559 207.367 89.2918 208.093C88.726 208.803 88.0061 209.394 87.1319 209.866C86.2578 210.338 85.232 210.633 84.0545 210.751ZM83.7595 207.79C84.6053 207.706 85.3002 207.452 85.8443 207.03C86.3868 206.59 86.7759 206.041 87.0116 205.381C87.2456 204.704 87.3222 203.96 87.2412 203.147C87.1586 202.318 86.9283 201.604 86.5504 201.005C86.1874 200.388 85.6892 199.927 85.0558 199.621C84.4373 199.298 83.7218 199.176 82.9091 199.257C82.0965 199.338 81.4107 199.599 80.8516 200.04C80.3075 200.463 79.9102 201.013 79.6595 201.692C79.4072 202.353 79.3224 203.099 79.405 203.928C79.486 204.741 79.708 205.455 80.0709 206.072C80.4489 206.671 80.947 207.132 81.5655 207.456C82.1823 207.763 82.9136 207.874 83.7595 207.79ZM99.3415 209.177C97.4841 209.362 95.9858 209.118 94.8467 208.444C93.7226 207.752 93.0662 206.712 92.8776 205.324L95.9872 205.014C96.0832 205.473 96.3824 205.871 96.8848 206.206C97.3872 206.541 98.1359 206.659 99.131 206.56C99.9602 206.477 100.6 206.263 101.052 205.916C101.519 205.568 101.728 205.137 101.676 204.623C101.632 204.175 101.406 203.838 100.998 203.61C100.606 203.381 99.9588 203.27 99.055 203.276L97.8485 203.271C96.3228 203.255 95.1189 202.94 94.2369 202.324C93.3548 201.709 92.8559 200.82 92.7402 199.66C92.6477 198.731 92.8022 197.928 93.2038 197.252C93.6053 196.575 94.1967 196.039 94.978 195.643C95.7741 195.229 96.7029 194.968 97.7643 194.863C99.4228 194.697 100.802 194.928 101.903 195.556C103.004 196.183 103.65 197.199 103.84 198.604L100.731 198.914C100.651 198.452 100.379 198.078 99.9151 197.789C99.4509 197.5 98.8124 197.396 97.9998 197.477C97.27 197.55 96.7202 197.747 96.3503 198.069C95.9804 198.39 95.8177 198.775 95.8623 199.223C95.9053 199.654 96.0959 199.97 96.4341 200.171C96.789 200.37 97.3354 200.475 98.0734 200.485L99.2798 200.49C100.888 200.497 102.176 200.813 103.143 201.437C104.126 202.059 104.678 202.975 104.799 204.186C104.888 205.082 104.717 205.886 104.285 206.599C103.869 207.294 103.239 207.867 102.397 208.32C101.554 208.772 100.536 209.058 99.3415 209.177Z" fill="white"/>
<rect x="37.7759" y="106" width="84" height="35.23" rx="17.615" transform="rotate(21.2625 37.7759 106)" fill="#154ADA"/>
<path d="M44.9657 137.357L49.8886 124.706L52.4514 125.703L50.3662 131.062L50.2963 131.035C51.0034 129.218 51.9266 127.994 53.0659 127.364C54.2051 126.735 55.5281 126.713 57.0347 127.299L57.5006 127.48L56.4037 130.3L55.5183 129.955C54.4311 129.532 53.4697 129.498 52.6343 129.852C51.8205 130.197 51.199 130.921 50.7698 132.024L48.2042 138.617L44.9657 137.357ZM58.8369 143.211C57.3769 142.643 56.4304 141.72 55.9975 140.443C55.5801 139.171 55.7401 137.588 56.4774 135.693L59.3332 128.355L62.5717 129.615L59.6071 137.233C59.3049 138.01 59.2806 138.716 59.5342 139.351C59.7938 139.971 60.2964 140.426 61.0419 140.716C61.7874 141.006 62.4869 141.001 63.1402 140.701C63.8091 140.406 64.3037 139.848 64.624 139.025L67.5342 131.546L70.7726 132.806L65.8407 145.48L63.2779 144.483L65.3722 139.101L65.6285 139.201C65.1328 140.474 64.5557 141.475 63.8972 142.202C63.2386 142.93 62.4985 143.384 61.6769 143.565C60.8553 143.746 59.9552 143.646 58.9767 143.265L58.8369 143.211ZM74.9957 149.23C73.8308 148.777 72.9252 148.255 72.279 147.664C71.6543 147.063 71.2946 146.333 71.1999 145.473C71.1112 144.598 71.3056 143.547 71.783 142.32L76.2668 130.866L79.2956 132.045L74.7302 143.708C74.4885 144.33 74.4642 144.875 74.6574 145.343C74.8722 145.802 75.2902 146.153 75.9115 146.395L77.8918 147.165L76.813 149.938L74.9957 149.23ZM71.928 136.019L72.8528 133.642L81.7993 137.124L80.8746 139.5L71.928 136.019ZM87.2141 153.797L88.6737 150.046L88.1379 149.838L89.7607 145.667C90.0448 144.937 90.0777 144.324 89.8595 143.828C89.6412 143.332 89.1594 142.938 88.4138 142.648C88.0255 142.497 87.5565 142.324 87.0069 142.128C86.4572 141.932 85.8967 141.74 85.3255 141.554C84.7758 141.358 84.2775 141.191 83.8305 141.053L84.9003 138.303C85.2696 138.411 85.6855 138.537 86.1481 138.682C86.6106 138.826 87.0748 138.989 87.5408 139.17C88.0283 139.342 88.4818 139.509 88.9012 139.673C90.2059 140.18 91.2189 140.771 91.9402 141.445C92.677 142.125 93.1208 142.915 93.2716 143.814C93.438 144.72 93.2915 145.763 92.8322 146.943L89.7769 154.794L87.2141 153.797ZM83.01 152.537C82.0936 152.18 81.3494 151.703 80.7774 151.105C80.2209 150.513 79.8663 149.838 79.7138 149.081C79.5767 148.33 79.6744 147.528 80.0068 146.674C80.3695 145.742 80.8908 145.068 81.5709 144.653C82.2666 144.244 83.0834 144.053 84.0214 144.078C84.975 144.109 86.011 144.342 87.1293 144.777L90.0649 145.92L89.3124 147.854L86.3302 146.693C85.5847 146.403 84.9374 146.366 84.3885 146.581C83.8612 146.787 83.4858 147.178 83.2621 147.753C83.0385 148.327 83.0513 148.869 83.3006 149.377C83.5654 149.892 84.0706 150.294 84.8162 150.584C85.2666 150.759 85.7084 150.842 86.1416 150.831C86.5964 150.812 87.0236 150.656 87.4232 150.364C87.8444 150.063 88.2035 149.577 88.5005 148.906L88.9391 150.123C88.5169 150.978 88.0094 151.639 87.4164 152.105C86.839 152.578 86.1762 152.857 85.428 152.941C84.7013 153.016 83.8953 152.881 83.01 152.537Z" fill="white"/>
<rect y="33.8926" width="109" height="35.23" rx="17.615" transform="rotate(-18.1162 0 33.8926)" fill="#154ADA"/>
<path d="M25.5096 53.5497L21.2885 40.6476L23.9022 39.7925L25.7135 45.3288L25.4759 45.4065C25.0457 44.0917 24.8624 42.9418 24.9258 41.9565C24.9841 40.9554 25.2813 40.1217 25.8173 39.4553C26.3692 38.7838 27.1599 38.2796 28.1895 37.9427L28.3321 37.8961C29.8686 37.3934 31.1961 37.5114 32.3147 38.2503C33.428 38.9732 34.306 40.3169 34.9486 42.2811L37.3662 49.6706L34.0635 50.7512L31.5526 43.0765C31.2935 42.2845 30.8539 41.7181 30.2339 41.3773C29.6297 41.0313 28.9316 40.9879 28.1395 41.2471C27.3317 41.5114 26.7572 41.9799 26.4162 42.6526C26.0858 43.3043 26.0579 44.0499 26.3326 44.8895L28.8123 52.4692L25.5096 53.5497ZM45.4448 47.4748C43.9558 47.9619 42.6388 47.8492 41.4938 47.1366C40.3646 46.4188 39.4839 45.0936 38.8516 43.1611L36.4029 35.6764L39.7057 34.5959L42.2477 42.3657C42.5068 43.1577 42.9358 43.7187 43.5349 44.0488C44.1287 44.3631 44.8058 44.3959 45.5661 44.1471C46.3264 43.8984 46.8639 43.4507 47.1785 42.8042C47.5089 42.1525 47.5367 41.4068 47.2621 40.5673L44.7667 32.9401L48.0695 31.8596L52.2983 44.7854L49.6846 45.6405L47.8889 40.1518L48.1503 40.0663C48.5752 41.3652 48.7639 42.5047 48.7163 43.4847C48.6687 44.4648 48.3848 45.2854 47.8646 45.9466C47.3444 46.6078 46.5853 47.1016 45.5874 47.4281L45.4448 47.4748ZM62.0138 42.1066C60.9049 42.4694 59.8686 42.598 58.9046 42.4925C57.9566 42.3818 57.1017 42.1004 56.3399 41.6482C55.5889 41.1749 54.9412 40.5889 54.397 39.8902C53.8686 39.1862 53.4696 38.4224 53.2001 37.5987L53.0524 37.1473C52.7726 36.2919 52.6378 35.4241 52.6479 34.544C52.6687 33.6429 52.8474 32.7953 53.1838 32.0013C53.531 31.1863 54.0489 30.4645 54.7375 29.8359C55.421 29.1914 56.2934 28.6955 57.3547 28.3483C58.7487 27.8923 60.014 27.8202 61.1507 28.1323C62.2981 28.4232 63.2726 28.99 64.0743 29.8325C64.8708 30.6591 65.4557 31.6427 65.8288 32.7832L66.2175 33.9712L54.7886 37.7103L54.1278 35.6907L63.4895 32.6279L62.7943 33.9601C62.5248 33.1364 62.1754 32.4703 61.7461 31.962C61.3167 31.4536 60.8047 31.1214 60.21 30.9652C59.6311 30.8039 58.9774 30.8424 58.2487 31.0808C57.52 31.3192 56.9567 31.6876 56.5586 32.1861C56.1605 32.6846 55.9305 33.2947 55.8685 34.0164C55.8172 34.7171 55.934 35.5031 56.2191 36.3743C56.4834 37.1822 56.8459 37.8614 57.3066 38.4121C57.7622 38.947 58.311 39.3111 58.9529 39.5044C59.5896 39.6819 60.3119 39.6385 61.1198 39.3742C61.9277 39.1099 62.5332 38.7364 62.9365 38.2537C63.3345 37.7552 63.5271 37.2451 63.5142 36.7232L66.5556 35.7282C66.6557 36.6774 66.5453 37.5728 66.2244 38.4143C65.9035 39.2558 65.3828 39.9961 64.6625 40.6351C63.958 41.2689 63.0751 41.7594 62.0138 42.1066ZM73.3005 37.9142L65.0401 26.3337L68.4379 25.2221L76.532 36.857L73.3005 37.9142ZM74.2747 37.5955L73.3885 34.8868L76.8814 33.7441L77.7675 36.4528L74.2747 37.5955ZM75.5816 37.168L74.687 23.1776L77.8709 22.1359L78.5992 36.1807L75.5816 37.168ZM92.2413 31.7175L90.9898 27.892L90.4433 28.0708L89.0518 23.8177C88.8082 23.0732 88.4447 22.5783 87.9612 22.3332C87.4776 22.0881 86.8557 22.0899 86.0954 22.3386C85.6993 22.4682 85.2267 22.6316 84.6775 22.8288C84.1282 23.026 83.5737 23.2338 83.0138 23.452C82.4646 23.6493 81.9734 23.8363 81.5402 24.013L80.6229 21.2093C80.9769 21.0584 81.3784 20.892 81.8274 20.71C82.2764 20.528 82.7385 20.3593 83.2137 20.2038C83.6996 20.0274 84.1564 19.8691 84.584 19.7292C85.9146 19.2939 87.0726 19.108 88.0578 19.1714C89.0589 19.2297 89.903 19.5585 90.5901 20.1579C91.293 20.7521 91.8414 21.6512 92.2353 22.8551L94.855 30.8624L92.2413 31.7175ZM88.192 33.4105C87.2575 33.7163 86.3793 33.8195 85.5577 33.72C84.7519 33.6154 84.0499 33.319 83.4518 32.8308C82.8695 32.3374 82.4358 31.6551 82.1508 30.7838C81.8399 29.8334 81.8156 28.9821 82.078 28.2298C82.3563 27.4724 82.866 26.8059 83.6071 26.2303C84.364 25.6495 85.3127 25.1725 86.4532 24.7993L89.4471 23.8199L90.0923 25.792L87.0509 26.787C86.2906 27.0358 85.7667 27.4176 85.4792 27.9325C85.2024 28.4264 85.1599 28.9664 85.3516 29.5525C85.5434 30.1386 85.8968 30.549 86.412 30.7838C86.9431 31.0134 87.5888 31.0038 88.3491 30.7551C88.8085 30.6048 89.2024 30.3882 89.5307 30.1055C89.8697 29.8016 90.1012 29.4103 90.225 28.9313C90.3596 28.4314 90.3287 27.8277 90.1323 27.1204L91.2434 27.7828C91.4596 28.7116 91.4866 29.5445 91.3243 30.2815C91.178 31.0132 90.8424 31.6491 90.3176 32.1891C89.8035 32.708 89.095 33.1151 88.192 33.4105Z" fill="white"/>
<circle cx="90.8753" cy="88.1577" r="22.6611" transform="rotate(-17.3396 90.8753 88.1577)" fill="#154ADA"/>
<path d="M102.001 95.5158C100.736 95.9107 98.8304 95.1602 96.284 93.2643C93.7118 91.3765 91.931 91.9325 90.9415 94.9324C89.9262 97.9403 88.7992 99.6376 87.5603 100.024C86.2957 100.419 86.3647 98.5991 87.7673 94.5638C89.1523 90.5625 88.145 87.3363 84.7455 84.8854C81.3283 82.4683 80.252 81.0624 81.5166 80.6675C82.7555 80.2807 84.6279 80.9707 87.134 82.7375C89.6401 84.5044 91.3564 83.9685 92.2829 81.1299C93.2353 78.2833 94.3309 76.6666 95.5697 76.2798C96.7828 75.9011 96.7412 77.6277 95.445 81.4598C94.1392 85.3515 95.211 88.5575 98.6604 91.0778C102.152 93.6416 103.265 95.121 102.001 95.5158Z" fill="white"/>
</svg>
