<svg width="24" height="24" viewBox="0 0 24 24" fill="none" xmlns="http://www.w3.org/2000/svg">
<path d="M13.1249 12C13.1249 12.2984 13.0063 12.5845 12.7954 12.7955C12.5844 13.0065 12.2982 13.125 11.9999 13.125C11.7015 13.125 11.4154 13.0065 11.2044 12.7955C10.9934 12.5845 10.8749 12.2984 10.8749 12C10.8749 11.7016 10.9934 11.4155 11.2044 11.2045C11.4154 10.9935 11.7015 10.875 11.9999 10.875C12.2982 10.875 12.5844 10.9935 12.7954 11.2045C13.0063 11.4155 13.1249 11.7016 13.1249 12ZM8.43737 12C8.43737 12.2984 8.31884 12.5845 8.10786 12.7955C7.89688 13.0065 7.61074 13.125 7.31237 13.125C7.014 13.125 6.72785 13.0065 6.51687 12.7955C6.3059 12.5845 6.18737 12.2984 6.18737 12C6.18737 11.7016 6.3059 11.4155 6.51687 11.2045C6.72785 10.9935 7.014 10.875 7.31237 10.875C7.61074 10.875 7.89688 10.9935 8.10786 11.2045C8.31884 11.4155 8.43737 11.7016 8.43737 12ZM17.8124 12C17.8124 12.2984 17.6938 12.5845 17.4829 12.7955C17.2719 13.0065 16.9857 13.125 16.6874 13.125C16.389 13.125 16.1029 13.0065 15.8919 12.7955C15.6809 12.5845 15.5624 12.2984 15.5624 12C15.5624 11.7016 15.6809 11.4155 15.8919 11.2045C16.1029 10.9935 16.389 10.875 16.6874 10.875C16.9857 10.875 17.2719 10.9935 17.4829 11.2045C17.6938 11.4155 17.8124 11.7016 17.8124 12ZM2.31549 7.93125C2.84518 6.67266 3.60456 5.54297 4.57252 4.57266C5.53374 3.60798 6.6748 2.84117 7.93112 2.31563C9.22018 1.77422 10.5889 1.5 11.9999 1.5H12.0467C13.4671 1.50703 14.8428 1.78828 16.1366 2.34141C17.3821 2.87234 18.5125 3.64052 19.4647 4.60312C20.4233 5.57109 21.1756 6.69609 21.696 7.95C22.235 9.24844 22.5069 10.6289 22.4999 12.0492C22.4919 13.6769 22.1068 15.2806 21.3749 16.7344V20.2969C21.3749 20.5828 21.2613 20.857 21.0591 21.0592C20.8569 21.2614 20.5827 21.375 20.2967 21.375H16.7319C15.2781 22.107 13.6744 22.492 12.0467 22.5H11.9975C10.5936 22.5 9.2319 22.2281 7.94987 21.6961C6.69989 21.1768 5.56308 20.419 4.60299 19.4648C3.63503 18.5062 2.87331 17.3859 2.34128 16.1367C1.78815 14.843 1.5069 13.4672 1.49987 12.0469C1.49284 10.6195 1.7694 9.23437 2.31549 7.93125ZM5.8569 18.1969C7.49987 19.8234 9.67956 20.7188 11.9999 20.7188H12.0397C13.453 20.7117 14.8569 20.3602 16.0967 19.6992L16.2936 19.5938H19.5936V16.2938L19.6991 16.0969C20.36 14.857 20.7116 13.4531 20.7186 12.0398C20.728 9.70313 19.835 7.50937 18.1967 5.85703C16.5608 4.20469 14.3741 3.29063 12.0374 3.28125H11.9975C10.8256 3.28125 9.68893 3.50859 8.61784 3.95859C7.57252 4.39687 6.63502 5.02734 5.82877 5.83359C5.02487 6.6375 4.39206 7.57734 3.95377 8.62266C3.49909 9.70547 3.27174 10.8539 3.27643 12.0398C3.29049 14.3742 4.2069 16.5609 5.8569 18.1969Z" fill="#3BD1F9"/>
</svg>
