<svg width="49" height="49" viewBox="0 0 49 49" fill="none" xmlns="http://www.w3.org/2000/svg">
<path fill-rule="evenodd" clip-rule="evenodd" d="M24.5001 27.7504C26.2323 27.7504 27.8936 27.0625 29.1187 25.838C30.3439 24.6135 31.0326 22.9525 31.0335 21.2203C31.0335 19.4876 30.3451 17.8258 29.1199 16.6006C27.8947 15.3753 26.2329 14.687 24.5001 14.687C22.7674 14.687 21.1056 15.3753 19.8804 16.6006C18.6551 17.8258 17.9668 19.4876 17.9668 21.2203C17.9677 22.9525 18.6564 24.6135 19.8815 25.838C21.1067 27.0625 22.7679 27.7504 24.5001 27.7504Z" stroke="#3BD1F9" stroke-width="3" stroke-linecap="square"/>
<path fill-rule="evenodd" clip-rule="evenodd" d="M44.1004 21.2202C44.1004 37.5438 27.7671 47.3372 24.5004 47.3372C21.2337 47.3372 4.90039 37.5438 4.90039 21.2202C4.90385 16.0243 6.97038 11.0423 10.6457 7.36939C14.3211 3.6965 19.3044 1.6333 24.5004 1.6333C35.3229 1.6333 44.1004 10.4043 44.1004 21.2202Z" stroke="#3BD1F9" stroke-width="3" stroke-linecap="square"/>
</svg>
